<svg width="75" height="79" viewBox="0 0 75 79" fill="none" xmlns="http://www.w3.org/2000/svg">
<path d="M64.0027 42.7781C64.0473 42.5606 64.0428 42.3358 63.9896 42.1202C63.9364 41.9046 63.8358 41.7036 63.6951 41.5318C63.5544 41.36 63.3772 41.2217 63.1763 41.127C62.9754 41.0323 62.756 40.9836 62.5339 40.9844H5.74015C5.51809 40.9836 5.29863 41.0323 5.09776 41.127C4.89689 41.2217 4.71967 41.36 4.57898 41.5318C4.43829 41.7036 4.33768 41.9046 4.28447 42.1202C4.23127 42.3358 4.2268 42.5606 4.2714 42.7781C5.17099 47.4391 7.27117 51.7846 10.3644 55.3853C13.4576 58.9861 17.4369 61.7174 21.9089 63.3094C22.1016 63.3788 22.2781 63.4869 22.4274 63.6271C22.5768 63.7673 22.6958 63.9366 22.7772 64.1246C22.8586 64.3126 22.9006 64.5152 22.9007 64.7201C22.9008 64.9249 22.8589 65.1276 22.7777 65.3156C22.2214 66.5969 21.9339 67.9813 21.9308 69.3781C21.9316 69.7743 22.0891 70.1541 22.369 70.4346C22.6489 70.715 23.0283 70.8734 23.4245 70.875H44.8558C45.252 70.8734 45.6314 70.715 45.9113 70.4346C46.1912 70.1541 46.3487 69.7743 46.3495 69.3781C46.3495 67.975 46.062 66.5875 45.5027 65.3C45.4195 65.112 45.3761 64.9088 45.3752 64.7032C45.3743 64.4976 45.416 64.294 45.4976 64.1053C45.5792 63.9166 45.6989 63.7468 45.8493 63.6066C45.9997 63.4664 46.1774 63.3588 46.3714 63.2906C50.8399 61.6993 54.8163 58.9705 57.9082 55.3733C61.0001 51.7761 63.1007 47.435 64.0027 42.7781Z" fill="#FF808C"/>
<g filter="url(#filter0_n_1097_1189)">
<path d="M64.0027 42.7781C64.0473 42.5606 64.0428 42.3358 63.9896 42.1202C63.9364 41.9046 63.8358 41.7036 63.6951 41.5318C63.5544 41.36 63.3772 41.2217 63.1763 41.127C62.9754 41.0323 62.756 40.9836 62.5339 40.9844H5.74015C5.51809 40.9836 5.29863 41.0323 5.09776 41.127C4.89689 41.2217 4.71967 41.36 4.57898 41.5318C4.43829 41.7036 4.33768 41.9046 4.28447 42.1202C4.23127 42.3358 4.2268 42.5606 4.2714 42.7781C5.17099 47.4391 7.27117 51.7846 10.3644 55.3853C13.4576 58.9861 17.4369 61.7174 21.9089 63.3094C22.1016 63.3788 22.2781 63.4869 22.4274 63.6271C22.5768 63.7673 22.6958 63.9366 22.7772 64.1246C22.8586 64.3126 22.9006 64.5152 22.9007 64.7201C22.9008 64.9249 22.8589 65.1276 22.7777 65.3156C22.2214 66.5969 21.9339 67.9813 21.9308 69.3781C21.9316 69.7743 22.0891 70.1541 22.369 70.4346C22.6489 70.715 23.0283 70.8734 23.4245 70.875H44.8558C45.252 70.8734 45.6314 70.715 45.9113 70.4346C46.1912 70.1541 46.3487 69.7743 46.3495 69.3781C46.3495 67.975 46.062 66.5875 45.5027 65.3C45.4195 65.112 45.3761 64.9088 45.3752 64.7032C45.3743 64.4976 45.416 64.294 45.4976 64.1053C45.5792 63.9166 45.6989 63.7468 45.8493 63.6066C45.9997 63.4664 46.1774 63.3588 46.3714 63.2906C50.8399 61.6993 54.8163 58.9705 57.9082 55.3733C61.0001 51.7761 63.1007 47.435 64.0027 42.7781Z" fill="#FFBFC5"/>
</g>
<g filter="url(#filter1_dn_1097_1189)">
<path d="M63.6964 41.5281C63.5549 41.3572 63.3773 41.2197 63.1762 41.1257C62.9752 41.0316 62.7558 40.9834 62.5339 40.9844H62.0652C58.8214 50.8469 47.5339 58.1594 34.0652 58.1594C20.5964 58.1594 9.30265 50.8469 6.06203 40.9844H5.74015C5.51809 40.9836 5.29863 41.0323 5.09776 41.127C4.89689 41.2217 4.71967 41.36 4.57898 41.5318C4.43829 41.7036 4.33768 41.9046 4.28447 42.1202C4.23127 42.3358 4.2268 42.5606 4.2714 42.7781C5.17099 47.4391 7.27117 51.7846 10.3644 55.3853C13.4576 58.9861 17.4369 61.7174 21.9089 63.3094C22.1016 63.3788 22.2781 63.4869 22.4274 63.6271C22.5768 63.7673 22.6958 63.9366 22.7772 64.1246C22.8586 64.3126 22.9006 64.5152 22.9007 64.7201C22.9008 64.9249 22.8589 65.1276 22.7777 65.3156C22.2214 66.5969 21.9339 67.9813 21.9308 69.3781C21.9316 69.7743 22.0891 70.1541 22.369 70.4346C22.6489 70.715 23.0283 70.8734 23.4245 70.875H44.8558C45.252 70.8734 45.6314 70.715 45.9113 70.4346C46.1912 70.1541 46.3487 69.7743 46.3495 69.3781C46.3495 67.975 46.062 66.5875 45.5027 65.3C45.4195 65.112 45.3761 64.9088 45.3752 64.7032C45.3743 64.4976 45.416 64.294 45.4976 64.1053C45.5792 63.9166 45.6989 63.7468 45.8493 63.6066C45.9997 63.4664 46.1774 63.3588 46.3714 63.2906C50.8405 61.6998 54.8175 58.9711 57.91 55.3739C61.0025 51.7767 63.1035 47.4353 64.0058 42.7781C64.0498 42.5597 64.0446 42.3341 63.9906 42.1179C63.9365 41.9017 63.8381 41.7002 63.6964 41.5281Z" fill="#FF808C"/>
</g>
<path d="M64.0027 42.7781C64.0473 42.5606 64.0428 42.3358 63.9896 42.1202C63.9364 41.9046 63.8358 41.7036 63.6951 41.5318C63.5544 41.36 63.3772 41.2217 63.1763 41.127C62.9754 41.0323 62.756 40.9836 62.5339 40.9844H5.74015C5.51809 40.9836 5.29863 41.0323 5.09776 41.127C4.89689 41.2217 4.71967 41.36 4.57898 41.5318C4.43829 41.7036 4.33768 41.9046 4.28447 42.1202C4.23127 42.3358 4.2268 42.5606 4.2714 42.7781C5.17099 47.4391 7.27117 51.7846 10.3644 55.3853C13.4576 58.9861 17.4369 61.7174 21.9089 63.3094C22.1016 63.3788 22.2781 63.4869 22.4274 63.6271C22.5768 63.7673 22.6958 63.9366 22.7772 64.1246C22.8586 64.3126 22.9006 64.5152 22.9007 64.7201C22.9008 64.9249 22.8589 65.1276 22.7777 65.3156C22.2214 66.5969 21.9339 67.9813 21.9308 69.3781C21.9316 69.7743 22.0891 70.1541 22.369 70.4346C22.6489 70.715 23.0283 70.8734 23.4245 70.875H44.8558C45.252 70.8734 45.6314 70.715 45.9113 70.4346C46.1912 70.1541 46.3487 69.7743 46.3495 69.3781C46.3495 67.975 46.062 66.5875 45.5027 65.3C45.4195 65.112 45.3761 64.9088 45.3752 64.7032C45.3743 64.4976 45.416 64.294 45.4976 64.1053C45.5792 63.9166 45.6989 63.7468 45.8493 63.6066C45.9997 63.4664 46.1774 63.3588 46.3714 63.2906C50.8399 61.6993 54.8163 58.9705 57.9082 55.3733C61.0001 51.7761 63.1007 47.435 64.0027 42.7781Z" stroke="#191919" stroke-width="3.125" stroke-linecap="round" stroke-linejoin="round"/>
<path d="M72.728 14.7625C73.0529 15.4859 73.0781 16.3085 72.7982 17.0505C72.5183 17.7924 71.956 18.3933 71.2342 18.7219L54.2249 26.4438C53.957 26.5662 53.6676 26.6346 53.3732 26.6449C53.0788 26.6553 52.7853 26.6074 52.5095 26.504C52.2336 26.4007 51.9809 26.2439 51.7659 26.0426C51.5508 25.8414 51.3776 25.5996 51.2561 25.3313L45.6936 13.0782C45.5707 12.8103 45.502 12.5208 45.4915 12.2264C45.4809 11.9319 45.5287 11.6382 45.6321 11.3623C45.7355 11.0864 45.8925 10.8336 46.094 10.6186C46.2955 10.4036 46.5375 10.2305 46.8061 10.1094L63.828 2.39065C64.1859 2.22827 64.5724 2.13818 64.9652 2.12556C65.3581 2.11295 65.7495 2.17805 66.1171 2.31713C66.4847 2.45622 66.8212 2.66655 67.1073 2.93604C67.3934 3.20553 67.6235 3.52888 67.7842 3.88753L72.728 14.7625Z" fill="#FFEF5E" stroke="#191919" stroke-width="3.125" stroke-linecap="round" stroke-linejoin="round"/>
<path d="M33.1811 21.1742L36.9498 18.7461M39.1561 33.1305L41.4373 30.7023M32.4686 29.2086L35.6561 26.4367" stroke="#191919" stroke-width="3.125" stroke-linecap="round" stroke-linejoin="round"/>
<defs>
<filter id="filter0_n_1097_1189" x="4.24097" y="40.9844" width="59.7921" height="29.8906" filterUnits="userSpaceOnUse" color-interpolation-filters="sRGB">
<feFlood flood-opacity="0" result="BackgroundImageFix"/>
<feBlend mode="normal" in="SourceGraphic" in2="BackgroundImageFix" result="shape"/>
<feTurbulence type="fractalNoise" baseFrequency="2.559999942779541 2.559999942779541" stitchTiles="stitch" numOctaves="3" result="noise" seed="487" />
<feColorMatrix in="noise" type="luminanceToAlpha" result="alphaNoise" />
<feComponentTransfer in="alphaNoise" result="coloredNoise1">
<feFuncA type="discrete" tableValues="1 1 1 1 1 1 1 1 1 1 1 1 1 1 1 1 1 1 1 1 1 1 1 1 1 1 1 1 1 1 1 1 1 1 1 1 1 1 1 1 1 1 1 1 1 1 1 1 1 1 1 0 0 0 0 0 0 0 0 0 0 0 0 0 0 0 0 0 0 0 0 0 0 0 0 0 0 0 0 0 0 0 0 0 0 0 0 0 0 0 0 0 0 0 0 0 0 0 0 0 "/>
</feComponentTransfer>
<feComposite operator="in" in2="shape" in="coloredNoise1" result="noise1Clipped" />
<feFlood flood-color="rgba(0, 0, 0, 0.25)" result="color1Flood" />
<feComposite operator="in" in2="noise1Clipped" in="color1Flood" result="color1" />
<feMerge result="effect1_noise_1097_1189">
<feMergeNode in="shape" />
<feMergeNode in="color1" />
</feMerge>
</filter>
<filter id="filter1_dn_1097_1189" x="0.240967" y="40.9844" width="67.7944" height="37.8906" filterUnits="userSpaceOnUse" color-interpolation-filters="sRGB">
<feFlood flood-opacity="0" result="BackgroundImageFix"/>
<feColorMatrix in="SourceAlpha" type="matrix" values="0 0 0 0 0 0 0 0 0 0 0 0 0 0 0 0 0 0 127 0" result="hardAlpha"/>
<feOffset dy="4"/>
<feGaussianBlur stdDeviation="2"/>
<feComposite in2="hardAlpha" operator="out"/>
<feColorMatrix type="matrix" values="0 0 0 0 0 0 0 0 0 0 0 0 0 0 0 0 0 0 0.25 0"/>
<feBlend mode="normal" in2="BackgroundImageFix" result="effect1_dropShadow_1097_1189"/>
<feBlend mode="normal" in="SourceGraphic" in2="BackgroundImageFix" result="shape"/>
<feTurbulence type="fractalNoise" baseFrequency="2.559999942779541 2.559999942779541" stitchTiles="stitch" numOctaves="3" result="noise" seed="7152" />
<feColorMatrix in="noise" type="luminanceToAlpha" result="alphaNoise" />
<feComponentTransfer in="alphaNoise" result="coloredNoise1">
<feFuncA type="discrete" tableValues="1 1 1 1 1 1 1 1 1 1 1 1 1 1 1 1 1 1 1 1 1 1 1 1 1 1 1 1 1 1 1 1 1 1 1 1 1 1 1 1 1 1 1 1 1 1 1 1 1 1 1 0 0 0 0 0 0 0 0 0 0 0 0 0 0 0 0 0 0 0 0 0 0 0 0 0 0 0 0 0 0 0 0 0 0 0 0 0 0 0 0 0 0 0 0 0 0 0 0 0 "/>
</feComponentTransfer>
<feComposite operator="in" in2="shape" in="coloredNoise1" result="noise1Clipped" />
<feFlood flood-color="rgba(0, 0, 0, 0.25)" result="color1Flood" />
<feComposite operator="in" in2="noise1Clipped" in="color1Flood" result="color1" />
<feMerge result="effect2_noise_1097_1189">
<feMergeNode in="shape" />
<feMergeNode in="color1" />
</feMerge>
<feBlend mode="normal" in="effect2_noise_1097_1189" in2="effect1_dropShadow_1097_1189" result="effect2_noise_1097_1189"/>
</filter>
</defs>
</svg>
