<svg width="85" height="82" viewBox="0 0 85 82" fill="none" xmlns="http://www.w3.org/2000/svg">
<g filter="url(#filter0_dn_1097_1235)">
<path d="M80.7313 44.4666C80.4758 36.92 80.2513 28.7377 80.2513 28.7377C80.2513 17.6933 63.4847 8.89551 42.6202 8.89551C21.7558 8.89551 4.84246 17.8511 4.84246 28.8955C4.84246 28.8955 4.62024 38.5933 4.62024 45.4244C4.62024 52.2555 4.98024 56.8777 4.98024 56.8777C5.22024 59.5155 6.11579 61.4466 8.38691 64.0111C9.29802 65.0422 10.8647 65.9911 11.9336 66.3466C13.0002 66.7022 16.1336 65.2822 16.1336 65.2822L42.6202 55.5644L52.7402 70.7444C52.7402 70.7444 53.8647 72.7311 55.5602 73.5377C57.2558 74.3466 59.3913 73.5044 61.3425 72.9133C72.7202 69.4711 79.4113 64.0688 80.4913 58.5555C80.7536 57.2155 80.9713 51.5377 80.7313 44.4666Z" fill="#FFAC33"/>
</g>
<path d="M42.619 8.89551C21.7545 8.89551 4.84119 17.8511 4.84119 28.8955C4.84119 33.1288 7.34119 37.0488 11.5812 40.2822L42.619 28.8955L55.1812 47.74C69.8612 44.9955 80.3967 37.6044 80.3967 28.8955C80.3967 17.8511 63.4834 8.89551 42.619 8.89551Z" fill="#F4900C"/>
<path d="M42.6189 8.89551C22.9811 8.89551 7.06335 17.3533 7.06335 27.7844C7.06335 32.1 9.81891 36.0666 14.4056 39.2466L42.6189 28.8955L53.8234 45.7022C67.9633 43.2066 78.1745 36.1333 78.1745 27.7844C78.1745 17.3533 62.2567 8.89551 42.6189 8.89551Z" fill="#994500"/>
<path d="M42.6198 8.89551C24.1376 8.89551 9.1554 16.8555 9.1554 26.6733C9.1554 31.0844 12.1976 35.1111 17.2043 38.22L42.6198 28.8955L52.4665 43.6666C66.1421 41.4311 76.0843 34.6688 76.0843 26.6733C76.0843 16.8555 61.1021 8.89551 42.6198 8.89551Z" fill="#662113"/>
<path d="M54.2414 50.8329C52.8147 48.5751 42.6191 32.2373 42.6191 32.2373C42.6191 32.2373 18.6414 41.1506 13.968 42.8284C11.7614 43.6195 12.2836 49.9062 12.4102 54.5995C12.6502 63.5884 13.488 63.444 15.8858 62.3773C21.2791 59.9817 42.6191 52.2506 42.6191 52.2506C42.6191 52.2506 51.2436 65.2551 53.6414 68.6106C54.5169 69.8373 55.2791 71.3817 55.4391 63.2306C55.5325 58.5373 55.6791 53.1106 54.2414 50.8329Z" fill="#662113"/>
<path d="M42.8674 35.8096C42.8674 35.8096 34.2252 37.6162 34.2252 45.6385C34.2252 53.9518 42.6163 50.5518 42.6163 50.5518C42.6163 50.5518 47.6097 56.8696 48.9252 49.7607C50.1963 42.8829 42.8674 35.8096 42.8674 35.8096Z" fill="#FFAC33"/>
<path d="M42.6139 40.9647C42.6139 40.9647 38.6583 41.5536 38.6583 45.2802C38.6583 49.1402 42.4939 47.798 42.4939 47.798C42.4939 47.798 45.1361 50.6691 45.6095 47.078C46.0806 43.518 42.6139 40.9647 42.6139 40.9647ZM61.6717 70.8136C61.4948 70.8133 61.3205 70.7708 61.1633 70.6897C61.0061 70.6085 60.8706 70.491 60.768 70.3469C60.6654 70.2027 60.5987 70.0362 60.5735 69.8611C60.5482 69.6861 60.5651 69.5075 60.6228 69.3402C61.6806 66.2713 60.9983 53.5913 60.225 49.8469C60.1652 49.5584 60.2225 49.258 60.3842 49.0117C60.5459 48.7654 60.7988 48.5934 61.0872 48.5336C61.2302 48.5024 61.3779 48.5001 61.5218 48.5268C61.6656 48.5535 61.8027 48.6085 61.925 48.6888C62.0473 48.7691 62.1523 48.873 62.234 48.9944C62.3157 49.1158 62.3723 49.2522 62.4006 49.3958C63.065 52.6069 64.0539 66.2069 62.725 70.0669C62.6491 70.2856 62.5068 70.4751 62.3179 70.6089C62.1291 70.7428 61.9031 70.8143 61.6717 70.8136ZM8.21168 61.4647C7.949 61.4646 7.69482 61.3715 7.49426 61.2019C7.2937 61.0323 7.15973 60.7971 7.11612 60.538C6.38724 56.1802 6.71835 44.6002 7.48724 40.8847C7.51451 40.7396 7.57043 40.6013 7.65174 40.4781C7.73305 40.3548 7.83811 40.249 7.96078 40.1668C8.08346 40.0846 8.22128 40.0277 8.36621 39.9994C8.51113 39.9711 8.66024 39.9719 8.80483 40.0019C8.94942 40.0319 9.08658 40.0904 9.20829 40.174C9.33001 40.2576 9.43385 40.3646 9.51373 40.4888C9.59361 40.613 9.64793 40.7519 9.67353 40.8973C9.69912 41.0427 9.69547 41.1918 9.66279 41.3358C8.94279 44.8136 8.62279 56.0869 9.30724 60.1691C9.33405 60.3284 9.32581 60.4916 9.28311 60.6474C9.2404 60.8031 9.16426 60.9477 9.05997 61.071C8.95568 61.1943 8.82576 61.2935 8.67926 61.3614C8.53275 61.4294 8.37319 61.4647 8.21168 61.4647ZM70.7806 66.738C70.6035 66.7381 70.4289 66.6959 70.2715 66.6149C70.114 66.5339 69.9782 66.4164 69.8753 66.2722C69.7725 66.128 69.7056 65.9614 69.6802 65.7861C69.6548 65.6109 69.6717 65.4321 69.7295 65.2647C70.7895 62.1958 70.1072 49.5158 69.3339 45.7713C69.2741 45.4829 69.3314 45.1824 69.4931 44.9362C69.6548 44.6899 69.9076 44.5179 70.1961 44.458C70.4846 44.3982 70.785 44.4555 71.0313 44.6172C71.2776 44.7789 71.4496 45.0318 71.5095 45.3202C72.1739 48.5336 73.1628 62.1358 71.8317 65.9913C71.7559 66.2097 71.6139 66.3989 71.4255 66.5327C71.2371 66.6666 71.0117 66.7383 70.7806 66.738ZM77.8539 60.5069C77.689 60.5075 77.526 60.4714 77.3767 60.4012C77.2275 60.331 77.0957 60.2285 76.9911 60.101C76.8864 59.9736 76.8114 59.8244 76.7715 59.6644C76.7317 59.5044 76.7279 59.3375 76.7606 59.1758C77.5428 55.2691 77.3583 43.8313 76.6428 40.3758C76.583 40.0873 76.6403 39.7869 76.802 39.5406C76.9637 39.2943 77.2165 39.1223 77.505 39.0625C77.7936 39.0052 78.0931 39.0637 78.3389 39.2255C78.5846 39.3872 78.7568 39.6392 78.8183 39.9269C79.585 43.6313 79.7783 55.4269 78.9406 59.6136C78.8903 59.865 78.7547 60.0913 78.5566 60.2541C78.3586 60.4169 78.1103 60.5062 77.8539 60.5069Z" fill="#F4900C"/>
<path d="M16.7858 35.5552C16.5339 35.5553 16.2895 35.4699 16.0925 35.3129C12.0747 32.104 10.2592 28.7218 10.6947 25.2596C11.5547 18.4174 21.0192 14.0752 21.4214 13.8952C21.5551 13.8292 21.7008 13.7909 21.8496 13.7825C21.9985 13.7741 22.1475 13.7957 22.2878 13.846C22.4282 13.8964 22.5569 13.9745 22.6665 14.0756C22.776 14.1768 22.864 14.299 22.9253 14.4349C22.9866 14.5708 23.02 14.7177 23.0233 14.8667C23.0267 15.0158 23 15.164 22.9449 15.3025C22.8898 15.4411 22.8074 15.5671 22.7026 15.6731C22.5977 15.7791 22.4726 15.8629 22.3347 15.9196C22.2458 15.9596 13.5992 19.9329 12.8969 25.5396C12.5658 28.1796 14.1081 30.884 17.4769 33.5752C17.657 33.7187 17.7881 33.9146 17.8519 34.1359C17.9158 34.3571 17.9093 34.5928 17.8335 34.8102C17.7576 35.0276 17.616 35.2161 17.4283 35.3496C17.2406 35.483 17.0161 35.5549 16.7858 35.5552ZM61.6014 39.2596C61.3341 39.2574 61.0766 39.1592 60.8758 38.9828C60.675 38.8065 60.5443 38.5638 60.5077 38.299C60.471 38.0343 60.5308 37.7652 60.6761 37.5409C60.8214 37.3166 61.0426 37.1521 61.2992 37.0774C61.3992 37.0507 71.2303 34.2018 72.6414 27.5463C74.0125 21.0907 63.8369 16.4307 63.7347 16.384C63.5998 16.3254 63.4779 16.2406 63.3761 16.1345C63.2742 16.0284 63.1944 15.9031 63.1414 15.7659C63.0883 15.6288 63.063 15.4824 63.0669 15.3354C63.0708 15.1884 63.1039 15.0436 63.1642 14.9094C63.2245 14.7753 63.3109 14.6544 63.4182 14.5539C63.5256 14.4534 63.6518 14.3752 63.7897 14.3238C63.9275 14.2725 64.0741 14.249 64.2211 14.2548C64.3681 14.2605 64.5124 14.2954 64.6458 14.3574C65.1347 14.5774 76.5525 19.8196 74.8147 28.0107C73.1192 35.984 62.3547 39.0907 61.8992 39.2196C61.8022 39.2464 61.702 39.2598 61.6014 39.2596ZM38.4014 26.3818L38.548 26.3885C38.9766 26.3868 39.3881 26.2201 39.6969 25.923C40.0058 25.6259 40.1883 25.2212 40.2066 24.793C40.2249 24.3648 40.0776 23.9461 39.7952 23.6237C39.5128 23.3013 39.1171 23.1001 38.6903 23.0618L34.5347 22.7018L36.1947 16.764C40.1392 15.8374 41.6125 14.0618 41.828 13.7729C42.0847 13.4267 42.1952 12.9937 42.1357 12.5669C42.0763 12.14 41.8517 11.7536 41.5103 11.4907C41.1642 11.2258 40.7295 11.1044 40.2962 11.1516C39.863 11.1987 39.4646 11.4109 39.1836 11.744C39.1614 11.7707 36.7747 14.4952 28.6614 13.9063C28.2236 13.8799 27.7931 14.0272 27.4631 14.3161C27.1332 14.6051 26.9304 15.0125 26.8989 15.4499C26.8673 15.8874 27.0094 16.3196 27.2944 16.653C27.5794 16.9863 27.9843 17.1939 28.4214 17.2307C29.2955 17.2944 30.1192 17.3255 30.8925 17.324C31.4925 17.324 32.0525 17.3018 32.5925 17.2685L31.1547 22.4085L26.9325 22.0418C26.7139 22.0199 26.4932 22.0419 26.2833 22.1066C26.0734 22.1714 25.8786 22.2775 25.7104 22.4188C25.5422 22.5601 25.4041 22.7336 25.304 22.9292C25.204 23.1247 25.1442 23.3383 25.1281 23.5574C25.0898 23.9976 25.228 24.435 25.5122 24.7734C25.7964 25.1117 26.2034 25.3234 26.6436 25.3618L28.7947 25.5485L21.0347 31.6529C20.8617 31.7877 20.717 31.9554 20.6091 32.1464C20.5013 32.3374 20.4324 32.5479 20.4063 32.7657C20.3803 32.9834 20.3977 33.2042 20.4575 33.4153C20.5173 33.6263 20.6183 33.8234 20.7547 33.9952C21.0283 34.3422 21.4284 34.5664 21.8672 34.6185C22.306 34.6706 22.7475 34.5463 23.0947 34.2729L29.1725 29.4929L27.8214 34.3263L31.6769 32.9107L32.8081 28.8685L34.4458 31.8974L37.6081 30.7374L35.0992 26.0996L38.4014 26.3818ZM55.3436 41.0996C55.4998 41.2531 55.6848 41.3741 55.888 41.4558C56.0911 41.5374 56.3084 41.5781 56.5274 41.5754C56.7463 41.5727 56.9626 41.5267 57.1637 41.4401C57.3648 41.3535 57.5468 41.228 57.6992 41.0707C57.8523 40.9142 57.9731 40.729 58.0546 40.5258C58.1362 40.3226 58.1769 40.1053 58.1744 39.8863C58.1719 39.6673 58.1263 39.451 58.0402 39.2497C57.9541 39.0483 57.8291 38.8659 57.6725 38.7129C54.1969 35.3218 53.6392 27.9196 53.6325 27.844C53.6093 27.588 53.5271 27.3408 53.3925 27.1218C55.7725 20.6818 56.1725 14.5752 56.1992 14.1263C56.2118 13.9077 56.1812 13.6887 56.1092 13.482C56.0371 13.2752 55.9251 13.0846 55.7794 12.9212C55.6337 12.7577 55.4572 12.6246 55.26 12.5294C55.0629 12.4342 54.8489 12.3787 54.6303 12.3663C54.4114 12.3515 54.1918 12.3806 53.9843 12.4517C53.7767 12.5228 53.5855 12.6345 53.4216 12.7804C53.2577 12.9262 53.1246 13.1033 53.0299 13.3012C52.9353 13.4991 52.881 13.7138 52.8703 13.9329C52.8636 14.0818 52.048 26.444 45.8969 33.8107L47.8125 36.6863C49.0272 35.341 50.0913 33.8671 50.9858 32.2907C51.648 35.1174 52.9192 38.7329 55.3436 41.0996Z" fill="#994500"/>
<path d="M61.8879 21.8711C61.6474 21.5005 61.2695 21.2406 60.8374 21.1485C60.4053 21.0564 59.9542 21.1397 59.5835 21.38L56.1568 23.6022C55.7988 23.8482 55.5509 24.2242 55.466 24.6502C55.3811 25.0762 55.4659 25.5185 55.7023 25.8829C55.9387 26.2474 56.308 26.5051 56.7316 26.6013C57.1552 26.6974 57.5996 26.6244 57.9702 26.3978L61.3968 24.1755C61.7674 23.935 62.0273 23.5571 62.1194 23.125C62.2115 22.6929 62.1282 22.2419 61.8879 21.8711ZM46.8835 24.9555C47.0353 25.1142 47.2171 25.2413 47.4182 25.3295C47.6194 25.4177 47.8359 25.4653 48.0555 25.4696C48.2751 25.4738 48.4934 25.4346 48.6978 25.3541C48.9022 25.2737 49.0886 25.1537 49.2465 25.001C49.4043 24.8483 49.5304 24.6659 49.6176 24.4642C49.7047 24.2626 49.7511 24.0458 49.7541 23.8261C49.7571 23.6065 49.7167 23.3885 49.6352 23.1845C49.5537 22.9806 49.4326 22.7948 49.279 22.6378L46.4102 19.6755C46.1028 19.3576 45.6817 19.1747 45.2395 19.1672C44.7974 19.1597 44.3703 19.3282 44.0524 19.6355C43.7344 19.9429 43.5516 20.364 43.5441 20.8061C43.5366 21.2483 43.705 21.6754 44.0124 21.9933L46.8835 24.9555Z" fill="#994500"/>
<defs>
<filter id="filter0_dn_1097_1235" x="0.620239" y="8.89551" width="84.2147" height="72.9756" filterUnits="userSpaceOnUse" color-interpolation-filters="sRGB">
<feFlood flood-opacity="0" result="BackgroundImageFix"/>
<feColorMatrix in="SourceAlpha" type="matrix" values="0 0 0 0 0 0 0 0 0 0 0 0 0 0 0 0 0 0 127 0" result="hardAlpha"/>
<feOffset dy="4"/>
<feGaussianBlur stdDeviation="2"/>
<feComposite in2="hardAlpha" operator="out"/>
<feColorMatrix type="matrix" values="0 0 0 0 0 0 0 0 0 0 0 0 0 0 0 0 0 0 0.25 0"/>
<feBlend mode="normal" in2="BackgroundImageFix" result="effect1_dropShadow_1097_1235"/>
<feBlend mode="normal" in="SourceGraphic" in2="BackgroundImageFix" result="shape"/>
<feTurbulence type="fractalNoise" baseFrequency="2 2" stitchTiles="stitch" numOctaves="3" result="noise" seed="1889" />
<feColorMatrix in="noise" type="luminanceToAlpha" result="alphaNoise" />
<feComponentTransfer in="alphaNoise" result="coloredNoise1">
<feFuncA type="discrete" tableValues="1 1 1 1 1 1 1 1 1 1 1 1 1 1 1 1 1 1 1 1 1 1 1 1 1 1 1 1 1 1 1 1 1 1 1 1 1 1 1 1 1 1 1 1 1 1 1 1 1 1 1 0 0 0 0 0 0 0 0 0 0 0 0 0 0 0 0 0 0 0 0 0 0 0 0 0 0 0 0 0 0 0 0 0 0 0 0 0 0 0 0 0 0 0 0 0 0 0 0 0 "/>
</feComponentTransfer>
<feComposite operator="in" in2="shape" in="coloredNoise1" result="noise1Clipped" />
<feFlood flood-color="rgba(0, 0, 0, 0.25)" result="color1Flood" />
<feComposite operator="in" in2="noise1Clipped" in="color1Flood" result="color1" />
<feMerge result="effect2_noise_1097_1235">
<feMergeNode in="shape" />
<feMergeNode in="color1" />
</feMerge>
<feBlend mode="normal" in="effect2_noise_1097_1235" in2="effect1_dropShadow_1097_1235" result="effect2_noise_1097_1235"/>
</filter>
</defs>
</svg>
