<svg width="43" height="44" viewBox="0 0 43 44" fill="none" xmlns="http://www.w3.org/2000/svg">
<path fill-rule="evenodd" clip-rule="evenodd" d="M22.6191 38.75C24.6875 38.75 26.7355 38.3426 28.6464 37.5511C30.5573 36.7596 32.2935 35.5995 33.7561 34.1369C35.2186 32.6744 36.3787 30.9381 37.1702 29.0273C37.9618 27.1164 38.3691 25.0683 38.3691 23C38.3691 20.9317 37.9618 18.8836 37.1702 16.9727C36.3787 15.0619 35.2186 13.3256 33.7561 11.8631C32.2935 10.4005 30.5573 9.24041 28.6464 8.4489C26.7355 7.65739 24.6875 7.25 22.6191 7.25C18.442 7.25 14.4359 8.90937 11.4822 11.8631C8.52851 14.8168 6.86914 18.8228 6.86914 23C6.86914 27.1772 8.52851 31.1832 11.4822 34.1369C14.4359 37.0906 18.442 38.75 22.6191 38.75ZM18.3149 12.605C19.6796 12.0402 21.1422 11.7497 22.6191 11.75C22.9175 11.75 23.2037 11.6315 23.4146 11.4205C23.6256 11.2095 23.7441 10.9234 23.7441 10.625C23.7441 10.3266 23.6256 10.0405 23.4146 9.8295C23.2037 9.61853 22.9175 9.5 22.6191 9.5C19.0387 9.5 15.6049 10.9223 13.0732 13.4541C10.5415 15.9858 9.11914 19.4196 9.11914 23C9.11914 23.2984 9.23767 23.5845 9.44865 23.7955C9.65962 24.0065 9.94577 24.125 10.2441 24.125C10.5425 24.125 10.8287 24.0065 11.0396 23.7955C11.2506 23.5845 11.3691 23.2984 11.3691 23C11.3689 20.7746 12.0288 18.5992 13.2651 16.7488C14.5015 14.8985 16.2588 13.4564 18.3149 12.605Z" fill="#013328" fill-opacity="0.2"/>
<path d="M18.3149 12.605C19.6796 12.0402 21.1422 11.7497 22.6191 11.75C22.9175 11.75 23.2037 11.6315 23.4146 11.4205C23.6256 11.2095 23.7441 10.9234 23.7441 10.625C23.7441 10.3266 23.6256 10.0405 23.4146 9.8295C23.2037 9.61853 22.9175 9.5 22.6191 9.5C19.0387 9.5 15.6049 10.9223 13.0732 13.4541C10.5415 15.9858 9.11914 19.4196 9.11914 23C9.11914 23.2984 9.23767 23.5845 9.44865 23.7955C9.65962 24.0065 9.94577 24.125 10.2441 24.125C10.5425 24.125 10.8287 24.0065 11.0396 23.7955C11.2506 23.5845 11.3691 23.2984 11.3691 23C11.3689 20.7746 12.0288 18.5992 13.2651 16.7488C14.5015 14.8985 16.2588 13.4564 18.3149 12.605Z" fill="#013328"/>
<path d="M41.7441 42.125L33.8691 34.25" stroke="#013328" stroke-width="2.25" stroke-linecap="round"/>
<path d="M20.3691 39.875C30.9316 39.875 39.4941 31.3124 39.4941 20.75C39.4941 10.1876 30.9316 1.625 20.3691 1.625C9.80669 1.625 1.24414 10.1876 1.24414 20.75C1.24414 31.3124 9.80669 39.875 20.3691 39.875Z" stroke="#013328" stroke-width="2.25"/>
</svg>
