<svg width="70" height="77" viewBox="0 0 70 77" fill="none" xmlns="http://www.w3.org/2000/svg">
<path d="M54.9318 62.4124L49.9888 68.3196C48.9308 69.3795 46.6193 68.333 46.6193 67.275V23.0019C46.6193 21.9439 51.1656 14.375 56.2026 14.375L56.1489 58.4718C56.1489 60.6453 55.9707 60.9788 54.9318 62.4124Z" fill="#E3A919"/>
<path d="M50.4525 20.0372H17.8691L18.241 19.3702L25.0375 14.3753C25.969 13.6489 26.6302 13.417 27.6882 13.417H55.2173C55.5776 13.417 56.2025 13.9479 55.8766 14.3178L50.4525 20.0372Z" fill="#FFD983"/>
<g filter="url(#filter0_dn_1097_1254)">
<path d="M48.5358 68.9993H19.7858C19.2775 68.9993 18.79 68.7974 18.4305 68.438C18.0711 68.0785 17.8691 67.591 17.8691 67.0827V20.0362C17.8691 20.0362 18.7278 19.166 19.7858 19.166H48.5358C49.5938 19.166 50.4525 20.0362 50.4525 20.0362V67.0827C50.4525 67.591 50.2505 68.0785 49.8911 68.438C49.5317 68.7974 49.0441 68.9993 48.5358 68.9993Z" fill="#FFCC4D"/>
</g>
<path d="M29.369 57.5C32.5447 57.5 35.119 54.9256 35.119 51.75C35.119 48.5744 32.5447 46 29.369 46C26.1934 46 23.619 48.5744 23.619 51.75C23.619 54.9256 26.1934 57.5 29.369 57.5Z" fill="#F4900C"/>
<path d="M29.3692 47.9173C33.6034 47.9173 37.0358 44.4848 37.0358 40.2507C37.0358 36.0165 33.6034 32.584 29.3692 32.584C25.135 32.584 21.7025 36.0165 21.7025 40.2507C21.7025 44.4848 25.135 47.9173 29.3692 47.9173Z" fill="#EA596E"/>
<path d="M37.9943 53.666C42.7577 53.666 46.6193 49.8045 46.6193 45.041C46.6193 40.2776 42.7577 36.416 37.9943 36.416C33.2308 36.416 29.3693 40.2776 29.3693 45.041C29.3693 49.8045 33.2308 53.666 37.9943 53.666Z" fill="#FFE8B6"/>
<path d="M37.9943 49.8333C40.6407 49.8333 42.786 47.688 42.786 45.0417C42.786 42.3953 40.6407 40.25 37.9943 40.25C35.3479 40.25 33.2026 42.3953 33.2026 45.0417C33.2026 47.688 35.3479 49.8333 37.9943 49.8333Z" fill="#FFCC4D"/>
<path d="M44.7006 16.2224C44.7006 16.2224 44.2981 17.0485 42.8472 17.0485C41.3962 17.0485 40.8672 16.2224 40.8672 16.2224V8.32187C40.8672 4.50195 41.8869 1.97962 43.8994 0.825783C45.8257 -0.278217 48.3576 0.0629498 51.4166 1.8512C53.8584 3.27528 59.8902 7.54753 60.0339 7.66637C60.0339 7.66637 60.3502 8.74928 59.4532 9.7747C58.5562 10.8001 57.6036 10.6314 57.6036 10.6314C57.5691 10.6046 51.66 6.43203 49.4846 5.15937C47.796 4.17228 46.4486 3.96528 45.8352 4.3237C45.3005 4.63037 44.7006 5.7152 44.7006 8.32187V16.2224Z" fill="#CCD6DD"/>
<path d="M49.3671 0.843449C47.2128 -0.0113841 45.3766 -0.0209675 43.8988 0.824283C42.3828 1.69445 41.4321 3.34278 41.0545 5.73478L44.8399 6.4382C45.0469 5.16553 45.4571 4.54262 45.8366 4.32412C46.2583 4.07687 47.0441 4.12287 48.0331 4.48128L49.3671 0.843449Z" fill="#99AAB5"/>
<path d="M50.3202 21.0827H18.8275C18.3004 21.0827 17.8691 20.6514 17.8691 20.1243C17.8691 19.5973 18.3004 19.166 18.8275 19.166H50.3202C50.8473 19.166 51.2786 19.5973 51.2786 20.1243C51.2786 20.6514 50.8473 21.0827 50.3202 21.0827Z" fill="#FFE8B6"/>
<path d="M56.0256 14.9418L51.1649 20.7608C50.8525 21.146 50.2622 21.1882 49.8539 20.8566C49.4457 20.525 49.3652 19.9385 49.6757 19.5533L54.5363 13.7343C54.8488 13.349 55.4391 13.3068 55.8473 13.6384C56.2575 13.9719 56.3361 14.5565 56.0256 14.9418Z" fill="#FFE8B6"/>
<defs>
<filter id="filter0_dn_1097_1254" x="13.8691" y="19.166" width="40.5833" height="57.833" filterUnits="userSpaceOnUse" color-interpolation-filters="sRGB">
<feFlood flood-opacity="0" result="BackgroundImageFix"/>
<feColorMatrix in="SourceAlpha" type="matrix" values="0 0 0 0 0 0 0 0 0 0 0 0 0 0 0 0 0 0 127 0" result="hardAlpha"/>
<feOffset dy="4"/>
<feGaussianBlur stdDeviation="2"/>
<feComposite in2="hardAlpha" operator="out"/>
<feColorMatrix type="matrix" values="0 0 0 0 0 0 0 0 0 0 0 0 0 0 0 0 0 0 0.25 0"/>
<feBlend mode="normal" in2="BackgroundImageFix" result="effect1_dropShadow_1097_1254"/>
<feBlend mode="normal" in="SourceGraphic" in2="BackgroundImageFix" result="shape"/>
<feTurbulence type="fractalNoise" baseFrequency="2 2" stitchTiles="stitch" numOctaves="3" result="noise" seed="4835" />
<feComponentTransfer in="noise" result="coloredNoise1">
<feFuncR type="linear" slope="2" intercept="-0.5" />
<feFuncG type="linear" slope="2" intercept="-0.5" />
<feFuncB type="linear" slope="2" intercept="-0.5" />
<feFuncA type="discrete" tableValues="1 1 1 1 1 1 1 1 1 1 1 1 1 1 1 1 1 1 1 1 1 1 1 1 1 1 1 1 1 1 1 1 1 1 1 1 1 1 1 1 1 1 1 1 1 1 1 1 1 1 1 0 0 0 0 0 0 0 0 0 0 0 0 0 0 0 0 0 0 0 0 0 0 0 0 0 0 0 0 0 0 0 0 0 0 0 0 0 0 0 0 0 0 0 0 0 0 0 0 0 "/>
</feComponentTransfer>
<feComposite operator="in" in2="shape" in="coloredNoise1" result="noise1Clipped" />
<feComponentTransfer in="noise1Clipped" result="color1">
<feFuncA type="table" tableValues="0 0.15" />
</feComponentTransfer>
<feMerge result="effect2_noise_1097_1254">
<feMergeNode in="shape" />
<feMergeNode in="color1" />
</feMerge>
<feBlend mode="normal" in="effect2_noise_1097_1254" in2="effect1_dropShadow_1097_1254" result="effect2_noise_1097_1254"/>
</filter>
</defs>
</svg>
