<svg width="70" height="61" viewBox="0 0 70 61" fill="none" xmlns="http://www.w3.org/2000/svg">
<g filter="url(#filter0_dn_1097_1187)">
<path d="M61.2889 5.73314C70.4044 27.9836 61.2889 39.9466 53.5773 46.5423C55.462 53.1383 47.9503 54.499 45.0972 51.2536C36.6978 54.1502 19.6335 54.056 7.40667 41.8311C0.810721 35.2351 5.95544 20.5622 23.4249 10.7365C38.5012 2.25615 53.5773 -2.45535 61.2889 5.73314Z" fill="#10DA05"/>
</g>
<path d="M23.4251 10.7365C36.33 2.2617 51.74 -1.28681 58.0399 4.19716C67.7113 12.6209 37.5589 31.6773 26.2519 36.1774C14.0024 41.0527 20.5983 52.1956 14.0024 52.1956C8.34877 52.1956 9.29112 44.6578 4.23476 37.5906C1.24809 33.4165 8.65044 20.438 23.4251 10.7365Z" fill="white"/>
<path d="M22.9078 9.94893C20.4487 11.5641 18.0989 13.3397 15.8737 15.2643L14.8128 16.2025C5.59334 24.5357 0.491579 33.9792 3.46848 38.1393C3.7476 38.5298 4.0137 38.9295 4.26634 39.3377C4.9302 40.4094 5.50132 41.5277 6.04804 42.7908L6.44636 43.748L7.85878 47.4832C9.40251 51.4833 10.894 53.1383 14.0022 53.1383C16.8385 53.1383 17.8248 51.7932 18.5236 48.3265L18.8477 46.6307L19.0469 45.6617L19.1677 45.1419L19.2885 44.6872L19.4171 44.2681L19.5619 43.8542L19.7303 43.4153C20.792 40.7435 22.7035 38.7329 26.0582 37.2782L26.6 37.0532C33.1191 34.4588 43.4796 28.2628 50.612 22.3862L51.5997 21.5578C52.0713 21.1554 52.5372 20.7462 52.997 20.3304L53.8708 19.5232C60.6752 13.1006 62.9657 7.55047 58.9196 3.72348L58.6584 3.48674C52.145 -2.18321 36.613 0.949159 22.9078 9.94893ZM57.4212 4.90819C60.6 7.6769 58.7307 12.324 52.6385 18.0952L51.7818 18.8889C51.6344 19.0223 51.485 19.1563 51.3337 19.2909L50.3991 20.1049C50.0731 20.3834 49.7446 20.6591 49.4136 20.9318C42.679 26.4807 32.9614 32.3463 26.5964 35.0187L25.9032 35.3023C21.7255 36.9651 19.2865 39.4282 17.9791 42.7195L17.705 43.4463L17.5537 43.9037L17.417 44.3772C17.395 44.459 17.3732 44.5433 17.3516 44.6301L17.2208 45.188L17.0084 46.2163L16.6784 47.946L16.5344 48.6225C16.0517 50.7186 15.5052 51.2538 14.0022 51.2538C11.9916 51.2538 10.9977 50.2483 9.78399 47.2291L8.36278 43.4744L8.11871 42.8557C7.43435 41.1753 6.7263 39.7304 5.8684 38.3453C5.59392 37.9016 5.3047 37.4673 5.00123 37.043C3.3711 34.7651 5.44177 29.6301 9.97168 24.0248L10.7276 23.112C14.0952 19.1423 18.6434 15.0036 23.9421 11.5244C37.0169 2.93807 51.7462 -0.0319952 57.4212 4.90819Z" fill="#0FC905"/>
<path d="M50.8163 5.59599C59.5698 7.9515 50.1283 16.3284 42.7071 21.6823C35.6741 26.7555 30.258 29.616 27.776 30.7846C27.0863 31.1104 24.7288 26.5405 24.7288 28.8999C24.7288 29.6858 23.4096 33.1174 22.9686 33.2833C20.3961 34.2481 15.0103 35.7143 11.9724 35.7143C5.3935 35.7143 8.34844 26.7555 17.6523 18.5238C19.3335 17.0369 20.4376 17.3083 21.9548 17.3083C20.9428 15.8515 20.9485 15.5803 22.7143 14.3949C30.5669 9.11619 40.3853 5.59209 44.554 4.93262C45.2438 4.95898 46.0992 5.59209 46.0992 6.11806C46.8719 5.85422 50.0473 5.38683 50.8163 5.59404V5.59599Z" fill="#FFE600"/>
<path d="M23.9846 20.14C25.8408 18.7323 27.0828 18.2366 27.9402 15.3797C29.0068 15.6077 29.5252 15.2289 30.3712 14.0586C30.9818 14.9368 33.494 15.2045 34.9938 15.3797C33.6465 16.2296 33.0022 16.9852 32.2578 19.3483C29.4986 18.197 26.2894 18.7794 23.9846 20.14Z" fill="white"/>
<defs>
<filter id="filter0_dn_1097_1187" x="0.640259" y="1.47852" width="68.4605" height="59.4639" filterUnits="userSpaceOnUse" color-interpolation-filters="sRGB">
<feFlood flood-opacity="0" result="BackgroundImageFix"/>
<feColorMatrix in="SourceAlpha" type="matrix" values="0 0 0 0 0 0 0 0 0 0 0 0 0 0 0 0 0 0 127 0" result="hardAlpha"/>
<feOffset dy="4"/>
<feGaussianBlur stdDeviation="2"/>
<feComposite in2="hardAlpha" operator="out"/>
<feColorMatrix type="matrix" values="0 0 0 0 0 0 0 0 0 0 0 0 0 0 0 0 0 0 0.25 0"/>
<feBlend mode="normal" in2="BackgroundImageFix" result="effect1_dropShadow_1097_1187"/>
<feBlend mode="normal" in="SourceGraphic" in2="BackgroundImageFix" result="shape"/>
<feTurbulence type="fractalNoise" baseFrequency="2.3521041870117188 2.3521041870117188" stitchTiles="stitch" numOctaves="3" result="noise" seed="8774" />
<feColorMatrix in="noise" type="luminanceToAlpha" result="alphaNoise" />
<feComponentTransfer in="alphaNoise" result="coloredNoise1">
<feFuncA type="discrete" tableValues="1 1 1 1 1 1 1 1 1 1 1 1 1 1 1 1 1 1 1 1 1 1 1 1 1 1 1 1 1 1 1 1 1 1 1 1 1 1 1 1 1 1 1 1 1 1 1 1 1 1 1 0 0 0 0 0 0 0 0 0 0 0 0 0 0 0 0 0 0 0 0 0 0 0 0 0 0 0 0 0 0 0 0 0 0 0 0 0 0 0 0 0 0 0 0 0 0 0 0 0 "/>
</feComponentTransfer>
<feComposite operator="in" in2="shape" in="coloredNoise1" result="noise1Clipped" />
<feFlood flood-color="rgba(0, 0, 0, 0.25)" result="color1Flood" />
<feComposite operator="in" in2="noise1Clipped" in="color1Flood" result="color1" />
<feMerge result="effect2_noise_1097_1187">
<feMergeNode in="shape" />
<feMergeNode in="color1" />
</feMerge>
<feBlend mode="normal" in="effect2_noise_1097_1187" in2="effect1_dropShadow_1097_1187" result="effect2_noise_1097_1187"/>
</filter>
</defs>
</svg>
