<svg width="73" height="73" viewBox="0 0 73 73" fill="none" xmlns="http://www.w3.org/2000/svg">
<g filter="url(#filter0_d_1097_1224)">
<path d="M66.9168 11.5547L4.99427 33.4369C4.99427 33.4369 4.76583 38.3403 5.29708 42.4097C5.82833 46.4791 6.5774 48.6678 6.5774 48.6678C6.5774 48.6678 8.61208 57.9434 20.4536 62.5441C32.2952 67.1447 44.413 61.9225 48.0574 59.9038C52.4349 57.4813 58.1511 51.8925 60.4143 49.1034C62.6774 46.3144 67.0655 39.9978 67.5915 35.9231C68.1174 31.8484 68.6699 25.4097 68.6486 21.335C68.6115 15.3 66.9168 11.5547 66.9168 11.5547Z" fill="#FEA8A6"/>
</g>
<path d="M36.6678 15.7877C33.1244 16.6165 21.8087 17.8968 19.0941 18.6511C16.3794 19.4055 12.6394 20.8718 11.4706 21.7962C9.55812 23.3102 4.96281 31.0186 4.98937 33.4358C5.03187 37.638 6.59375 42.8283 7.95375 44.0821C8.94187 44.9958 16.6078 56.0565 27.015 56.1308C37.4222 56.2052 60.3509 40.5174 61.3284 39.1627C62.3112 37.8027 65.7112 31.3002 66.6569 27.1936C67.4909 23.5652 68.5481 15.7665 66.7578 11.033C65.3819 7.38865 62.1306 4.02584 59.9153 3.5849C55.5325 2.71896 53.0356 3.56896 52.3556 3.7974C51.6756 4.02584 50.5122 11.0968 47.6062 12.1699C43.3084 13.753 36.6678 15.7877 36.6678 15.7877Z" fill="#FED5B6"/>
<path d="M50.0015 12.0055C53.0934 10.178 53.4175 3.52148 53.4175 3.52148C53.4175 3.52148 51.0481 3.67555 48.4078 5.81648C45.7675 7.95742 42.7181 11.7771 41.2147 12.8715C39.7112 13.9659 36.6672 15.788 36.6672 15.788C36.6672 15.788 45.2362 14.8159 50.0015 12.0055ZM53.5981 19.7884C55.229 24.8034 61.1525 26.3865 62.8365 25.9349C64.5206 25.478 65.5672 21.7912 65.429 16.4202C65.2909 11.0493 62.5603 8.04242 60.0103 8.22836C57.8269 8.38242 54.7722 10.518 53.6353 13.7799C52.9738 15.7261 52.9608 17.8342 53.5981 19.7884ZM43.6265 18.5612C44.3331 19.2677 42.3994 21.3396 43.4884 24.5696C44.5828 27.7996 46.3997 28.7134 46.2669 29.6696C46.134 30.6259 38.5744 40.1831 33.2512 42.1859C27.9281 44.1887 13.154 43.5193 10.4447 35.9968C8.39404 30.3071 12.7237 25.3984 13.8606 24.4793C15.5872 23.0821 17.2978 22.0143 19.9169 21.5202C20.9156 21.3343 28.385 20.2027 32.7997 19.7459C37.209 19.289 42.8084 17.743 43.6265 18.5612Z" fill="#DC0D28"/>
<path d="M31.0625 22.4296C31.4344 24.1562 26.3716 25.8455 22.4616 28.709C19.5663 30.8286 17.3616 34.7174 14.8594 33.1715C12.3572 31.6255 15.8847 25.649 17.2288 24.613C18.8172 23.3858 30.6535 20.5171 31.0625 22.4296ZM44.8431 12.1021C45.2256 12.9521 48.0306 10.8749 49.396 9.73271C50.501 8.81365 51.8397 7.97959 51.1278 6.86396C50.3097 5.58896 48.8541 6.68334 47.441 8.18146C46.5166 9.16427 44.4288 11.1937 44.8431 12.1021Z" fill="#FF5F5D"/>
<g filter="url(#filter1_n_1097_1224)">
<path d="M23.9169 47.648C26.0313 48.3174 25.2929 55.7283 26.876 55.6593C28.7088 55.5849 27.37 49.3693 29.0541 47.8711C30.7382 46.3677 32.8579 46.6121 35.9072 45.1087C38.9566 43.6052 42.3088 40.779 44.6729 38.0005C47.0422 35.2221 49.6825 32.0824 50.9097 31.1261C52.1369 30.1699 58.5597 28.2574 60.7857 29.8086C63.0169 31.3546 62.1988 37.9102 62.1988 37.9102C62.1988 37.9102 57.8532 45.6983 49.1141 50.8674C40.375 56.0365 35.4025 58.0871 24.7669 56.8705C14.1313 55.654 7.75098 43.8708 7.75098 43.8708C7.75098 43.8708 11.8522 45.6186 16.49 46.3783C21.1279 47.138 21.8132 46.984 23.9169 47.648Z" fill="#DC0D28"/>
</g>
<path d="M49.1455 15.6554C46.5211 17.2492 44.1836 20.2242 45.3736 24.2139C46.5636 28.2036 52.7367 30.6261 56.8008 26.7373C60.4027 23.2948 59.5527 19.2786 57.9005 17.3289C56.2589 15.3845 52.5667 13.5783 49.1455 15.6554Z" fill="white"/>
<path d="M54.6496 17.4405C51.8658 16.0274 49.013 17.6424 48.1258 19.454C47.2439 21.2655 47.3555 23.8102 49.4592 25.319C51.7117 26.9393 55.1702 26.1265 56.3761 23.6455C57.5821 21.1646 56.8596 18.5615 54.6496 17.4405Z" fill="#FFA8A7"/>
<defs>
<filter id="filter0_d_1097_1224" x="0.945435" y="11.5547" width="71.7039" height="60.8311" filterUnits="userSpaceOnUse" color-interpolation-filters="sRGB">
<feFlood flood-opacity="0" result="BackgroundImageFix"/>
<feColorMatrix in="SourceAlpha" type="matrix" values="0 0 0 0 0 0 0 0 0 0 0 0 0 0 0 0 0 0 127 0" result="hardAlpha"/>
<feOffset dy="4"/>
<feGaussianBlur stdDeviation="2"/>
<feComposite in2="hardAlpha" operator="out"/>
<feColorMatrix type="matrix" values="0 0 0 0 0 0 0 0 0 0 0 0 0 0 0 0 0 0 0.25 0"/>
<feBlend mode="normal" in2="BackgroundImageFix" result="effect1_dropShadow_1097_1224"/>
<feBlend mode="normal" in="SourceGraphic" in2="effect1_dropShadow_1097_1224" result="shape"/>
</filter>
<filter id="filter1_n_1097_1224" x="7.75098" y="29.2227" width="54.5942" height="27.9883" filterUnits="userSpaceOnUse" color-interpolation-filters="sRGB">
<feFlood flood-opacity="0" result="BackgroundImageFix"/>
<feBlend mode="normal" in="SourceGraphic" in2="BackgroundImageFix" result="shape"/>
<feTurbulence type="fractalNoise" baseFrequency="2 2" stitchTiles="stitch" numOctaves="3" result="noise" seed="658" />
<feColorMatrix in="noise" type="luminanceToAlpha" result="alphaNoise" />
<feComponentTransfer in="alphaNoise" result="coloredNoise1">
<feFuncA type="discrete" tableValues="1 1 1 1 1 1 1 1 1 1 1 1 1 1 1 1 1 1 1 1 1 1 1 1 1 1 1 1 1 1 1 1 1 1 1 1 1 1 1 1 1 1 1 1 1 1 1 1 1 1 1 0 0 0 0 0 0 0 0 0 0 0 0 0 0 0 0 0 0 0 0 0 0 0 0 0 0 0 0 0 0 0 0 0 0 0 0 0 0 0 0 0 0 0 0 0 0 0 0 0 "/>
</feComponentTransfer>
<feComposite operator="in" in2="shape" in="coloredNoise1" result="noise1Clipped" />
<feFlood flood-color="rgba(0, 0, 0, 0.25)" result="color1Flood" />
<feComposite operator="in" in2="noise1Clipped" in="color1Flood" result="color1" />
<feMerge result="effect1_noise_1097_1224">
<feMergeNode in="shape" />
<feMergeNode in="color1" />
</feMerge>
</filter>
</defs>
</svg>
