<svg width="65" height="65" viewBox="0 0 65 65" fill="none" xmlns="http://www.w3.org/2000/svg">
<path opacity="0.5" d="M37.1836 36.0799C37.3688 36.2651 48.0994 27.1411 48.0994 27.1411L49.2105 11.861L39.9463 15.8499L24.3109 15.2343L16.4631 11.6758L17.6893 26.6706C17.6843 26.6706 37.0034 35.8997 37.1836 36.0799Z" fill="white"/>
<path opacity="0.7" d="M32.0747 2.96777L24.1318 3.73353L18.1409 5.89567L14.7976 9.37911L18.4212 51.4607L18.3511 56.7559C18.3511 56.7559 22.6003 62.2614 32.6352 62.2614C42.6702 62.2614 47.545 57.2464 47.545 57.2464L47.4749 51.811L50.7481 9.79452L48.3808 6.38115L39.3919 3.52332L32.0747 2.96777Z" fill="#E0E0E0"/>
<path d="M17.6539 26.6508C17.6539 28.0171 19.3957 51.8707 20.1614 53.127C20.9272 54.3832 24.9361 58.3071 32.7388 58.1669C40.5415 58.0268 45.3113 54.5884 45.7267 53.4022C46.1471 52.2161 48.094 27.1363 48.094 27.1363C48.094 27.1363 47.8838 24.4186 42.2432 22.5367C36.6027 20.6549 29.5607 21.0503 26.0122 21.771C21.5528 22.6819 17.6539 25.1193 17.6539 26.6508Z" fill="#C0C0C0"/>
<path d="M20.1913 31.3459L18.6698 28.3529C18.6698 28.3529 18.6398 27.4671 18.7599 26.9365C18.88 26.406 19.7859 23.9135 25.7018 22.7324C30.3964 21.7914 36.3573 21.8765 40.6866 23.0577C43.6195 23.8585 46.4923 25.415 46.8877 26.9616C47.3382 28.7183 46.5624 29.469 46.5624 29.469L43.6245 34.1637L22.1483 33.8784L20.1913 31.3459Z" fill="#FCF9E9"/>
<g filter="url(#filter0_d_1097_1213)">
<path d="M21.094 52.4518C21.2842 53.0975 24.3172 56.8612 32.5654 56.8612C40.8135 56.8612 44.4871 53.7982 44.5672 53.1025C44.6473 52.4068 46.9746 28.5632 46.9746 28.5632C46.9746 28.5632 43.5863 32.9726 32.8056 32.7674C22.0249 32.5622 18.6766 28.333 18.6766 28.333C18.6766 28.333 20.8888 51.7612 21.094 52.4518Z" fill="#F0E7BA"/>
</g>
<path d="M21.783 19.0936C20.6018 19.1687 19.9862 20.0746 20.2314 21.9514C20.3966 23.2127 20.7219 24.564 22.3936 24.3988C24.0852 24.2337 24.1353 22.4669 23.9451 21.4609C23.6648 19.9545 23.0943 19.0135 21.783 19.0936ZM22.3585 25.1396C21.2174 25.2297 20.847 25.9153 21.0122 27.9574C21.2274 30.655 22.6038 47.5968 22.7289 49.0682C22.849 50.5397 23.5047 51.0702 24.4006 51.0702C25.2964 51.0702 26.0322 50.1743 25.9921 49.1533C25.9521 48.1323 24.4006 28.8583 24.2754 27.7572C24.1553 26.6511 23.9501 25.0145 22.3585 25.1396ZM19.9462 54.5536C19.6058 55.4395 20.787 57.2513 23.1343 58.4575C25.7519 59.8038 28.6798 59.5986 28.7298 58.4975C28.7799 57.3364 26.9731 57.6467 24.2404 56.3354C21.9782 55.2493 20.4767 53.1623 19.9462 54.5536Z" fill="white"/>
<path d="M33.8202 59.8039C33.7151 60.6747 38.1995 60.3744 41.6329 59.1933C45.5368 57.847 46.6829 55.9401 46.2324 55.2844C45.782 54.6288 44.8761 56.3255 41.0173 57.5817C35.672 59.3084 33.9753 58.4826 33.8202 59.8039Z" fill="#D5D5D5"/>
<path d="M33.2949 17.147H32.9396C21.6884 17.077 17.4743 14.1291 15.9628 12.3023C14.9818 11.1111 14.6615 9.8148 14.8967 8.55355V8.51351C16.0278 5.13517 22.4042 2.1322 32.7644 2.09216C44.4409 2.04712 50.4268 6.16619 50.7171 8.97396C50.8072 9.87485 50.6421 11.4514 49.3007 12.8628C46.8583 15.4203 41.0776 17.147 33.2949 17.147ZM17.2791 8.96395C17.1239 9.78977 17.0839 10.4654 17.7896 11.3163C18.8707 12.6226 21.8936 15.3102 32.9296 15.3803H33.2999C43.1897 15.3803 46.3478 13.2031 47.6691 11.7467C48.4099 10.9309 48.7001 10.2102 48.6151 9.34934C48.4199 7.50251 43.54 3.96902 32.8895 4.02908C21.5483 4.08914 17.6995 6.96198 17.3341 8.9039L17.2791 8.96395Z" fill="#C8C8C8"/>
<path d="M18.6446 6.941C18.4193 6.70076 17.6085 6.85592 16.9479 7.62167C16.3623 8.30234 15.5815 9.70373 16.7327 11.2903C17.8938 12.8869 21.5124 15.8548 33.3541 16.01C44.0547 16.1501 49.1747 12.4965 49.3249 10.0291C49.475 7.56161 47.9385 7.62167 47.9385 7.96201C47.9385 8.30234 48.2588 8.98802 48.1537 9.81384C48.0286 10.7648 45.6563 14.8338 33.229 14.8638C21.3272 14.8939 17.4334 11.0401 17.4734 9.80883C17.5335 7.89694 19.1401 7.46652 18.6446 6.941Z" fill="white"/>
<defs>
<filter id="filter0_d_1097_1213" x="14.6766" y="28.333" width="36.298" height="36.5283" filterUnits="userSpaceOnUse" color-interpolation-filters="sRGB">
<feFlood flood-opacity="0" result="BackgroundImageFix"/>
<feColorMatrix in="SourceAlpha" type="matrix" values="0 0 0 0 0 0 0 0 0 0 0 0 0 0 0 0 0 0 127 0" result="hardAlpha"/>
<feOffset dy="4"/>
<feGaussianBlur stdDeviation="2"/>
<feComposite in2="hardAlpha" operator="out"/>
<feColorMatrix type="matrix" values="0 0 0 0 0 0 0 0 0 0 0 0 0 0 0 0 0 0 0.25 0"/>
<feBlend mode="normal" in2="BackgroundImageFix" result="effect1_dropShadow_1097_1213"/>
<feBlend mode="normal" in="SourceGraphic" in2="effect1_dropShadow_1097_1213" result="shape"/>
</filter>
</defs>
</svg>
