<svg width="55" height="54" viewBox="0 0 55 54" fill="none" xmlns="http://www.w3.org/2000/svg">
<g opacity="0.2">
<path d="M50.569 29.7003C50.569 34.7129 48.5778 39.5202 45.0334 43.0646C41.4889 46.609 36.6816 48.6003 31.669 48.6003C26.6565 48.6003 21.8492 46.609 18.3047 43.0646C14.7603 39.5202 12.769 34.7129 12.769 29.7003C12.769 24.6877 14.7603 19.8804 18.3047 16.336C21.8492 12.7915 26.6565 10.8003 31.669 10.8003C36.6816 10.8003 41.4889 12.7915 45.0334 16.336C48.5778 19.8804 50.569 24.6877 50.569 29.7003Z" fill="#013328"/>
<path fill-rule="evenodd" clip-rule="evenodd" d="M31.8941 43.6505C35.4746 43.6505 38.9083 42.2282 41.4401 39.6964C43.9718 37.1647 45.3941 33.7309 45.3941 30.1505C45.3941 26.5701 43.9718 23.1363 41.4401 20.6045C38.9083 18.0728 35.4746 16.6505 31.8941 16.6505C28.3137 16.6505 24.8799 18.0728 22.3482 20.6045C19.8165 23.1363 18.3941 26.5701 18.3941 30.1505C18.3941 33.7309 19.8165 37.1647 22.3482 39.6964C24.8799 42.2282 28.3137 43.6505 31.8941 43.6505ZM31.8941 49.0505C34.3761 49.0505 36.8338 48.5616 39.1269 47.6118C41.4199 46.662 43.5034 45.2698 45.2585 43.5148C47.0135 41.7598 48.4056 39.6763 49.3555 37.3832C50.3053 35.0902 50.7941 32.6325 50.7941 30.1505C50.7941 27.6685 50.3053 25.2108 49.3555 22.9178C48.4056 20.6247 47.0135 18.5412 45.2585 16.7862C43.5034 15.0311 41.4199 13.639 39.1269 12.6892C36.8338 11.7394 34.3761 11.2505 31.8941 11.2505C26.8815 11.2505 22.0743 13.2417 18.5298 16.7862C14.9854 20.3306 12.9941 25.1379 12.9941 30.1505C12.9941 35.1631 14.9854 39.9704 18.5298 43.5148C22.0743 47.0592 26.8815 49.0505 31.8941 49.0505Z" fill="#013328"/>
</g>
<path fill-rule="evenodd" clip-rule="evenodd" d="M15.7495 14.7152C13.8832 16.554 12.4566 18.7908 11.5762 21.2585C10.6958 23.7262 10.3845 26.3609 10.6654 28.9658C10.6916 29.3157 10.5805 29.662 10.3556 29.9314C10.1308 30.2008 9.80992 30.3721 9.46098 30.4089C9.11204 30.4458 8.76246 30.3453 8.48632 30.1289C8.21017 29.9124 8.02915 29.5969 7.98161 29.2493C7.65755 26.2407 8.0174 23.1977 9.03427 20.3476C10.0511 17.4976 11.6988 14.9141 13.8541 12.7901C21.784 4.96819 34.5766 5.09509 42.4255 13.0547C50.2744 21.0143 50.2231 33.8042 42.2905 41.6261C38.618 45.2524 33.6891 47.3238 28.5286 47.4095C26.5774 47.4453 24.6313 47.1988 22.7506 46.6778C22.4055 46.5826 22.1123 46.3541 21.9356 46.0427C21.7588 45.7313 21.7131 45.3624 21.8083 45.0173C21.9035 44.6721 22.132 44.379 22.4434 44.2022C22.7548 44.0255 23.1237 43.9798 23.4688 44.075C25.0999 44.527 26.7878 44.7407 28.48 44.7095C32.9485 44.6393 37.2172 42.8459 40.3951 39.7037C47.2558 32.9375 47.3125 21.8567 40.5031 14.9501C33.6937 8.04349 22.6102 7.94899 15.7495 14.7152Z" fill="#013328"/>
<path fill-rule="evenodd" clip-rule="evenodd" d="M10.3227 30.6799C10.2046 30.8122 10.0616 30.9199 9.90195 30.9969C9.74226 31.0739 9.56896 31.1187 9.39195 31.1287C9.21494 31.1387 9.03769 31.1138 8.87032 31.0553C8.70294 30.9969 8.54873 30.906 8.41648 30.7879L3.77248 26.6569C3.62972 26.5423 3.51176 26.3999 3.42577 26.2383C3.33978 26.0766 3.28756 25.8992 3.27229 25.7168C3.25701 25.5344 3.279 25.3507 3.33691 25.1771C3.39483 25.0034 3.48746 24.8433 3.60917 24.7066C3.73089 24.5698 3.87914 24.4593 4.04492 24.3816C4.2107 24.304 4.39055 24.2608 4.57352 24.2549C4.75649 24.2489 4.93876 24.2802 5.10926 24.3469C5.27975 24.4135 5.4349 24.5142 5.56528 24.6427L10.2093 28.7737C10.3419 28.8914 10.4501 29.0341 10.5276 29.1936C10.605 29.3531 10.6503 29.5263 10.6609 29.7033C10.6714 29.8803 10.647 30.0577 10.5889 30.2253C10.5309 30.3928 10.4404 30.5473 10.3227 30.6799Z" fill="#013328"/>
<path fill-rule="evenodd" clip-rule="evenodd" d="M8.23277 30.5103C8.33914 30.6521 8.47241 30.7716 8.62496 30.8619C8.77751 30.9523 8.94635 31.0117 9.12186 31.0367C9.29736 31.0618 9.47608 31.0521 9.64782 31.0081C9.81956 30.9641 9.98095 30.8867 10.1228 30.7803L15.5228 26.7303C15.8092 26.5155 15.9986 26.1957 16.0492 25.8412C16.0998 25.4868 16.0076 25.1267 15.7928 24.8403C15.5779 24.5539 15.2581 24.3645 14.9037 24.3139C14.5492 24.2632 14.1892 24.3555 13.9028 24.5703L8.50277 28.6203C8.21634 28.8351 8.02698 29.1549 7.97634 29.5094C7.92571 29.8638 8.01795 30.2239 8.23277 30.5103ZM27.6188 17.5503C27.9768 17.5503 28.3202 17.6925 28.5734 17.9457C28.8265 18.1989 28.9688 18.5423 28.9688 18.9003V28.3503C28.9688 28.7083 28.8265 29.0517 28.5734 29.3049C28.3202 29.5581 27.9768 29.7003 27.6188 29.7003C27.2607 29.7003 26.9174 29.5581 26.6642 29.3049C26.411 29.0517 26.2688 28.7083 26.2688 28.3503V18.9003C26.2688 18.5423 26.411 18.1989 26.6642 17.9457C26.9174 17.6925 27.2607 17.5503 27.6188 17.5503Z" fill="#013328"/>
<path fill-rule="evenodd" clip-rule="evenodd" d="M37.069 28.3502C37.069 28.7083 36.9268 29.0517 36.6736 29.3048C36.4205 29.558 36.0771 29.7002 35.719 29.7002H27.619C27.261 29.7002 26.9176 29.558 26.6644 29.3048C26.4113 29.0517 26.269 28.7083 26.269 28.3502C26.269 27.9922 26.4113 27.6488 26.6644 27.3956C26.9176 27.1425 27.261 27.0002 27.619 27.0002H35.719C36.0771 27.0002 36.4205 27.1425 36.6736 27.3956C36.9268 27.6488 37.069 27.9922 37.069 28.3502Z" fill="#013328"/>
</svg>
