<svg width="278" height="216" viewBox="0 0 278 216" fill="none" xmlns="http://www.w3.org/2000/svg">
<path d="M66.8656 170.514L45.45 136.945L51.3184 113.86L100.852 81.125L169.271 72.7256L246.924 82.7937L284.304 97.4787C284.304 97.4787 312.422 121.815 312.839 126.849C313.257 131.883 305.274 158.332 304.857 159.584C304.44 160.836 298.989 188.12 282.607 193.988C266.226 199.857 160.9 214.987 159.203 214.124C157.507 213.262 66.8656 170.514 66.8656 170.514Z" fill="#2F2F2F"/>
<path d="M55.5488 160.029C55.5488 160.029 56.1885 152.909 58.6082 145.817C61.8345 136.305 91.6494 94.9756 175.17 94.9756C258.691 94.9756 304.86 136.11 300.243 156.664C295.626 177.217 238.138 228.865 238.138 228.865C238.138 228.865 137.401 213.346 135.732 212.928C134.036 212.483 55.5488 160.029 55.5488 160.029Z" fill="#F7B03A"/>
<path d="M94.4015 135.553C91.954 136.082 89.8125 137.667 90.035 140.504C90.2297 143.341 92.844 144.676 95.1803 144.286C98.8237 143.674 100.131 141.088 99.6581 138.557C99.1853 136.249 96.6265 135.053 94.4015 135.553ZM92.0653 148.764C94.5128 152.63 90.8137 157.998 83.4156 160.334C76.0175 162.67 70.8722 161.502 70.01 156.44C69.1478 151.379 75.7394 148.18 79.1325 147.012C82.5256 145.844 89.5344 144.787 92.0653 148.764ZM131.698 120.785C131.865 124.539 137.233 126.625 144.826 125.652C152.418 124.679 156.479 120.507 156.09 116.724C155.7 112.942 150.36 111.468 144.242 111.857C138.123 112.246 131.503 116.029 131.698 120.785ZM157.758 110.967C157.758 114.332 161.736 115.445 166.881 115.139C173 114.805 174.668 112.413 174.947 110.188C175.225 107.963 171.553 104.459 166.38 104.848C161.263 105.238 157.758 107.268 157.758 110.967ZM208.767 142.451C208.377 146.706 211.298 151.379 222.756 150.433C234.215 149.487 236.468 143.73 236.468 141.7C236.468 139.669 234.577 133.495 223.646 133.328C217.055 133.217 209.351 136.026 208.767 142.451ZM262.139 140.031C261.916 142.2 262.612 147.819 272.93 147.513C283.221 147.234 281.969 143.73 281.969 142.173C281.969 140.615 278.465 134.886 271.178 134.107C265.365 133.467 262.528 136.415 262.139 140.031ZM275.35 155.078C275.155 157.692 278.159 159.75 284.583 159.361C290.035 159.027 292.399 156.162 292.26 154.021C292.065 150.906 289.061 149.348 284.389 149.543C280.3 149.71 275.656 151.406 275.35 155.078ZM157.369 181.138C157.48 183.363 162.236 186.005 169.912 186.005C177.589 186.005 179.035 182.807 179.035 180.47C179.035 178.134 176.615 175.52 169.523 175.214C163.182 174.936 157.174 177.355 157.369 181.138Z" fill="#FFE36A"/>
<path d="M77.6904 173.46C77.9686 172.793 78.3023 169.872 79.7207 167.425C80.9723 165.283 83.1973 163.531 85.7561 163.531C90.2339 163.531 100.33 165.283 102.666 168.482C104.363 170.818 104.224 179.468 97.4095 181.693C90.5954 183.946 77.6904 173.46 77.6904 173.46ZM98.4664 128.738C98.6054 130.518 101.47 134.078 105.28 133.8C109.063 133.521 120.049 128.46 121.134 126.207C122.19 123.982 117.74 118.92 114.82 118.92C111.9 118.92 98.1882 125.066 98.4664 128.738ZM210.44 158.692C209.299 161 208.103 167.814 213.054 169.678C218.005 171.513 237.167 172.403 237.167 166.869C237.167 161.334 231.716 157.357 229.686 157.051C227.628 156.745 212.192 155.187 210.44 158.692ZM232.884 149.653C229.741 154.52 235.471 160.305 239.698 162.28C248.821 166.563 253.41 165.84 256.608 163.448C262.06 159.359 260.196 155.271 248.543 149.847C240.227 145.954 235.026 146.343 232.884 149.653Z" fill="#D64C12"/>
<path d="M181.596 120.648C181.513 125.793 193.027 130.994 201.315 131.244C209.603 131.494 211.773 127.601 212.385 125.765C212.996 123.929 210.076 117.616 206.794 114.918C203.512 112.22 195.113 109.439 191.331 109.94C187.548 110.413 181.707 114.084 181.596 120.648Z" fill="#7F594B"/>
<path d="M113.899 147.678C114.455 151.155 119.767 153.519 129.112 154.131C140.432 154.854 147.608 149.736 147.858 147.567C148.108 145.37 141.517 139.779 129.975 139.779C115.957 139.752 113.426 144.619 113.899 147.678Z" fill="#FE8D00"/>
<path d="M109.896 168.376C109.534 174.578 113.901 177.137 119.992 176.887C126.083 176.636 137.513 170.935 139.822 164.343C141.268 160.255 134.454 153.024 124.469 153.385C118.712 153.608 110.202 162.953 109.896 168.376Z" fill="#7F594B"/>
<path d="M217.028 131.722C219.476 133.057 228.598 130.498 235.774 129.052C242.949 127.605 250.264 126.854 251.349 124.546C252.433 122.238 250.486 112.503 239.779 111.641C229.071 110.779 222.98 114.812 220.421 117.593C217.862 120.402 216.166 123.795 216.027 124.768C215.916 125.77 215.331 130.804 217.028 131.722ZM260.61 149.994C264.087 149.383 261.834 138.925 259.025 135.754C256.216 132.584 248.317 131.138 243.311 131.749C238.332 132.361 234.911 133.696 234.661 136.505C234.411 139.314 243.311 144.043 247.928 146.128C252.572 148.159 258.524 150.356 260.61 149.994Z" fill="#FE8D00"/>
<path d="M141.072 157.864C143.936 158.866 150.611 156.919 150.695 152.691C150.778 148.464 146.968 144.514 143.213 145.377C141.322 145.794 137.372 150.717 137.456 152.608C137.539 154.527 139.597 157.364 141.072 157.864ZM155.089 132.499C155.339 135.865 162.821 139.369 165.407 137.144C167.855 135.03 166.437 126.047 163.266 126.047C159.317 126.047 154.978 131.109 155.089 132.499ZM162.153 148.658C162.209 149.854 163.961 155.361 168.272 155.278C172.583 155.194 178.424 150.8 178.424 148.575C178.424 146.35 171.637 139.202 168.439 139.286C166.27 139.341 162.07 146.35 162.153 148.658Z" fill="#92A51E"/>
<path d="M176.339 132.746C175.839 135.722 178.064 136.028 180.038 136.362C182.013 136.695 184.516 137.307 187.103 140.673C189.689 144.038 192.22 151.019 192.526 151.77C193.472 154.19 197.783 155.469 200.87 152.465C203.957 149.461 197.866 136.223 192.443 131.995C186.991 127.768 177.285 127.239 176.339 132.746Z" fill="#FBE0BC"/>
<path d="M174.947 139.815C175.364 142.569 181.65 147.63 186.044 145.405C190.438 143.18 185.71 134.976 183.791 134.086C182.595 133.502 174.335 135.81 174.947 139.815ZM200.507 133.029C198.532 132.945 196.891 133.641 196.974 136.978C197.058 140.344 198.337 144.126 202.732 144.376C207.126 144.627 207.543 138.87 207.543 138.174C207.543 137.479 204.873 133.196 200.507 133.029ZM201.786 151.246C200.145 150.857 192.246 154.25 192.079 157.448C191.912 160.619 194.833 163.039 199.811 163.65C204.79 164.262 208.155 164.262 208.85 161.843C209.518 159.423 206.681 152.442 201.786 151.246Z" fill="#92A51E"/>
<path d="M237.639 180.196C237.945 182.059 244.509 184.98 246.623 184.396C248.709 183.812 253.854 173.076 261.558 170.879C269.262 168.654 271.821 169.599 272.878 168.431C273.935 167.263 272.405 161.895 269.846 160.978C267.288 160.06 260.39 158.753 251.768 163.787C242.924 168.904 237.278 178.11 237.639 180.196ZM155.454 153.719C151.671 153.941 146.581 159.559 144.384 164.677C141.019 172.436 139.962 178.889 140.88 180.53C141.825 182.171 148.528 184.451 151.254 182.616C151.949 182.143 152.644 173.521 156.038 166.985C158.346 162.563 162.212 160.811 162.907 160.115C163.603 159.42 161.628 153.385 155.454 153.719ZM122.913 114.336C121.884 115.309 119.075 119.815 119.993 127.742C120.716 133.777 121.55 137.448 123.497 138.338C124.999 139.034 135.734 140.09 136.68 137.281C137.626 134.472 130.979 126.685 130.255 125.266C129.532 123.848 129.199 115.699 129.087 114.67C128.976 113.613 124.554 112.806 122.913 114.336Z" fill="#FBE0AF"/>
<path d="M341.796 113.44C336.761 103.372 331.31 99.5891 326.693 99.5891C322.076 99.5891 306.14 107.154 306.14 107.154C306.14 107.154 270.401 68.7728 179.76 67.4657C92.0393 66.1863 54.7427 102.482 54.7427 102.482C54.7427 102.482 42.1158 92.8585 29.934 94.11C17.7799 95.3894 7.29458 127.29 12.7458 136.524C18.1971 145.758 26.1793 145.341 32.4649 148.706C38.7505 152.071 44.6468 155.854 45.8983 157.94C47.1499 160.026 50.9324 206.639 62.6971 227.61C74.4618 248.609 96.684 276.727 178.119 278.396C259.554 280.064 281.526 247.19 291.427 228.444C303.192 206.194 308.643 165.06 308.643 165.06C308.643 165.06 317.042 157.495 326.276 153.74C336.483 149.568 340.961 148.706 343.909 144.506C346.83 140.279 346.83 123.508 341.796 113.44ZM181.039 191.927C93.3187 191.064 50.9046 163.363 52.184 131.907C53.0183 111.354 94.153 77.3391 174.754 78.1735C256.216 79.0357 306.974 108.406 306.557 135.662C306.112 162.946 267.091 192.761 181.039 191.927Z" fill="#6A6E70"/>
<path opacity="0.6" d="M177.811 115.224C186.684 114.278 182.651 99.3427 189.938 84.9358C206.597 51.9224 239.333 48.5849 238.415 20.4108C237.414 -10.4054 189.632 -25.3686 175.086 -13.5483C170.413 -9.73794 197.197 -5.37138 192.969 12.2061C188.714 29.7836 156.312 30.9796 148.441 59.1536C139.069 92.5842 172.054 115.808 177.811 115.224Z" fill="#EAEAEA"/>
</svg>
