<svg width="300" height="242" viewBox="0 0 300 242" fill="none" xmlns="http://www.w3.org/2000/svg">
<path d="M150.102 273C232.377 273 299.461 258.525 299.461 240.788C299.461 223.023 232.377 208.548 150.102 208.548C67.8271 208.548 0.714233 223.023 0.714233 240.788C0.714233 258.525 67.8271 273 150.102 273Z" fill="#F2F2F2"/>
<path d="M122.839 257.895C122.839 171.921 122.839 85.9555 122.839 0C180.225 7.86702 233.12 25.3175 278.606 58.7309C278.864 118.492 274.058 176.879 263.273 233.636C217.873 246.366 170.814 253.661 122.839 257.895Z" fill="#7E848A"/>
<path d="M122.839 257.895C122.839 171.921 122.839 85.9555 122.839 0C88.5101 9.46903 52.6937 34.2716 29.6648 70.8604C29.4932 130.621 32.3825 176.879 38.8192 233.636C65.9961 246.366 94.1458 253.661 122.839 257.895Z" fill="#696F75"/>
<path d="M107.277 5.32129C78.0112 17.1933 49.2322 39.7645 29.6648 70.8607C29.5218 124.814 31.839 167.782 37.0455 217.359C72.1753 190.611 100.582 136.629 108.306 74.3794C111.367 49.6627 110.824 26.2333 107.277 5.32129Z" fill="#60666C"/>
<path d="M270.139 222.908C279.436 171.043 283.584 118.319 283.698 65.6248C244.964 38.648 200.995 23.5434 154.765 15.6191C154.765 91.4667 154.765 167.305 154.765 243.133C193.643 239.186 232.348 232.921 270.139 222.908Z" fill="#979BA1"/>
<path fill-rule="evenodd" clip-rule="evenodd" d="M215.613 88.4824C227.399 88.4824 237.984 94.1753 245.622 103.387C253.06 112.37 257.637 124.728 257.637 138.316C257.637 151.905 253.06 164.263 245.622 173.246C237.984 182.458 227.399 188.179 215.613 188.179C203.855 188.179 193.242 182.458 185.632 173.246C178.194 164.263 173.589 151.905 173.589 138.316C173.589 124.728 178.194 112.37 185.632 103.387C193.242 94.1753 203.855 88.4824 215.613 88.4824ZM209.233 122.296C211.694 122.296 213.982 123.097 215.956 124.499L232.491 103.272C227.542 99.6393 221.763 97.5223 215.613 97.5223C206.687 97.5223 198.534 101.985 192.584 109.166C191.935 109.928 191.325 110.729 190.753 111.569L200.823 125.958C203.111 123.669 206.058 122.296 209.233 122.296ZM220.047 129.048C221.592 131.651 222.479 134.855 222.479 138.316C222.479 140.004 222.278 141.606 221.878 143.122L246.366 153.049C247.825 148.501 248.597 143.523 248.597 138.316C248.597 126.902 244.792 116.575 238.67 109.166C238.117 108.517 237.555 107.888 236.982 107.277L220.047 129.048ZM219.418 148.615C216.986 152.134 213.324 154.365 209.262 154.365C208.366 154.346 207.488 154.232 206.63 154.022L200.737 174.734C205.228 177.537 210.292 179.139 215.641 179.139C224.596 179.139 232.72 174.676 238.67 167.496C240.844 164.893 242.704 161.917 244.22 158.685L219.418 148.615ZM201.195 151.047C198.048 148.129 195.988 143.523 195.988 138.345C195.988 135.856 196.474 133.482 197.304 131.393L187.406 117.261C184.402 123.412 182.657 130.621 182.657 138.345C182.657 149.759 186.462 160.087 192.613 167.496C193.547 168.64 194.548 169.718 195.616 170.729L201.195 151.047Z" fill="#7E848A"/>
<path d="M140.719 243.105H154.765V15.6191H140.719V243.105Z" fill="#696F75"/>
<path d="M136.399 42.053C139.279 41.6907 142.159 41.6907 145.038 42.053C146.011 56.0706 145.954 71.1181 145.038 87.0524C142.159 87.4338 139.279 87.4338 136.399 87.0524C135.97 72.1193 135.941 57.1005 136.399 42.053Z" fill="#585E63"/>
<path d="M145.754 63.4512C145.754 64.1759 145.754 64.9102 145.754 65.654H136.084V63.4512H145.754Z" fill="#363A3D"/>
<path d="M136.399 169.727C139.279 169.346 142.159 169.346 145.039 169.727C146.011 183.745 145.954 198.793 145.039 214.727C142.159 215.089 139.279 215.089 136.399 214.727C135.97 199.765 135.941 184.775 136.399 169.727Z" fill="#585E63"/>
<path d="M145.754 191.126C145.754 191.851 145.754 192.585 145.754 193.329H136.084V191.126H145.754Z" fill="#363A3D"/>
<path d="M200.48 108.25L219.532 135.399L247.996 98.8672L252.745 102.558L224.224 139.175L262.987 154.909L260.727 160.487L221.392 144.525L211.465 179.425L205.658 177.766L216.128 141.006L195.559 111.712L200.48 108.25Z" fill="#696F75"/>
<path d="M200.48 108.25C202.177 110.672 203.884 113.095 205.6 115.517C204.313 115.03 200.966 118.578 202.311 121.324C200.06 118.12 197.81 114.916 195.559 111.712C197.199 110.549 198.84 109.395 200.48 108.25ZM241.588 107.106C243.724 104.36 245.86 101.613 247.996 98.8672C249.579 100.107 251.162 101.337 252.745 102.558C250.457 105.475 248.178 108.393 245.908 111.311C247.195 108.165 243.219 105.962 241.588 107.106ZM254.719 151.562C257.485 152.668 260.24 153.784 262.987 154.909C262.224 156.759 261.471 158.618 260.727 160.487C257.828 159.305 254.939 158.132 252.059 156.969C254.319 156.969 256.35 153.307 254.719 151.562ZM214.326 169.298C213.372 172.674 212.418 176.05 211.465 179.425C209.52 178.872 207.584 178.319 205.658 177.766C206.84 173.628 208.022 169.489 209.205 165.351C209.548 168.927 212.409 171.53 214.326 169.298Z" fill="#51565C"/>
<path fill-rule="evenodd" clip-rule="evenodd" d="M227.685 88.4824C239.471 88.4824 250.056 94.1753 257.694 103.387C265.132 112.37 269.709 124.728 269.709 138.316C269.709 151.905 265.132 164.263 257.694 173.246C250.056 182.458 239.471 188.179 227.685 188.179C215.928 188.179 205.314 182.458 197.705 173.246C190.267 164.263 185.661 151.905 185.661 138.316C185.661 124.728 190.267 112.37 197.705 103.387C205.314 94.1753 215.928 88.4824 227.685 88.4824ZM250.743 109.166C244.792 101.985 236.639 97.5223 227.685 97.5223C218.76 97.5223 210.607 101.985 204.656 109.166C198.506 116.575 194.701 126.902 194.701 138.316C194.701 149.759 198.506 160.058 204.656 167.496C210.607 174.676 218.76 179.111 227.685 179.111C236.639 179.111 244.792 174.676 250.743 167.496C256.865 160.058 260.669 149.759 260.669 138.316C260.669 126.902 256.865 116.575 250.743 109.166Z" fill="#B4B8BE"/>
<path d="M221.306 154.336C228.6 154.336 234.551 147.156 234.551 138.316C234.551 129.505 228.6 122.296 221.306 122.296C214.011 122.296 208.06 129.505 208.06 138.316C208.06 147.156 214.011 154.336 221.306 154.336Z" fill="#B4B8BE"/>
</svg>
