<svg width="50" height="50" viewBox="0 0 50 50" fill="none" xmlns="http://www.w3.org/2000/svg">
<path d="M41.5777 8.52447L24.1137 4.8621C21.1778 4.2464 18.2966 6.12066 17.6791 9.05623C16.5867 14.2494 15.358 20.191 15.0502 22.017C14.988 22.3858 14.9592 22.761 14.9321 23.1341C13.9196 37.0643 22.2019 43.4069 26.9799 45.0472C27.3231 45.165 27.6835 45.2323 28.0464 45.2356C37.0262 45.3166 42.7042 29.4924 44.4438 21.4106L45.7897 14.9661C46.4041 12.0244 44.5189 9.14126 41.5777 8.52447Z" fill="#013328" fill-opacity="0.2"/>
<path d="M20.015 25.8165L22.9326 29.0832L30.2233 20.9165" stroke="black" stroke-width="3.0625" stroke-linecap="round" stroke-linejoin="round"/>
<path d="M6.74414 21.768C6.74414 15.2387 6.74414 11.9741 7.51589 10.8757C8.2856 9.77929 11.3542 8.72783 17.4935 6.62696L18.6634 6.22679C21.8627 5.13042 23.4613 4.58325 25.1191 4.58325C26.777 4.58325 28.3756 5.13042 31.5749 6.22679L32.7448 6.62696C38.8841 8.72783 41.9527 9.77929 42.7224 10.8757C43.4941 11.9741 43.4941 15.2408 43.4941 21.768V24.9815C43.4941 30.0959 41.7853 34.0404 39.4108 37.0539M7.13818 29.0833C8.88789 37.8583 16.0868 42.3806 20.8296 44.4509C22.3016 45.094 23.0387 45.4166 25.1191 45.4166C27.2016 45.4166 27.9366 45.094 29.4087 44.4509C30.5908 43.9364 31.922 43.2667 33.2858 42.4215" stroke="#013328" stroke-width="3.0625" stroke-linecap="round"/>
</svg>
