<svg width="316" height="200" viewBox="0 0 316 200" fill="none" xmlns="http://www.w3.org/2000/svg">
<path d="M326.401 210.815H13.6157C6.56081 210.815 0.874756 205.129 0.874756 198.074C0.874756 191.019 6.56081 185.333 13.6157 185.333H326.401C333.456 185.333 339.142 191.019 339.142 198.074C339.142 205.076 333.456 210.815 326.401 210.815Z" fill="#2B2727"/>
<path d="M284.598 72.2957V44.9711C284.598 34.494 276.121 26.0176 265.644 26.0176C255.167 26.0176 246.691 34.494 246.691 44.9711V72.243C246.691 89.6697 232.528 103.832 215.102 103.832V183.858C215.102 190.86 220.735 196.494 227.737 196.494H303.551C310.553 196.494 316.187 190.86 316.187 183.858V103.832C298.707 103.885 284.598 89.7223 284.598 72.2957Z" fill="#72361F"/>
<path d="M266.908 26.0176H258.273V30.3874H266.908V26.0176Z" fill="#72361F"/>
<path d="M277.227 72.2957V44.9711C277.227 34.494 268.75 26.0176 258.273 26.0176C247.796 26.0176 239.32 34.494 239.32 44.9711V72.243C239.32 89.6697 225.157 103.832 207.73 103.832V183.858C207.73 190.86 213.364 196.494 220.366 196.494H296.18C303.182 196.494 308.816 190.86 308.816 183.858V103.832C291.336 103.885 277.227 89.7223 277.227 72.2957Z" fill="#5B3318"/>
<path d="M308.816 103.885C296.917 103.885 286.598 97.3035 281.175 87.6162L251.955 99.4095L237.161 107.623L272.225 113.098L308.816 105.833V103.885Z" fill="#5B3318"/>
<path d="M258.274 51.6581C261.763 51.6581 264.591 48.8293 264.591 45.3403C264.591 41.8507 261.763 39.0225 258.274 39.0225C254.784 39.0225 251.956 41.8507 251.956 45.3403C251.956 48.8293 254.784 51.6581 258.274 51.6581Z" fill="#783F21"/>
<path d="M84.0065 26.0176H76.6357V27.9656H84.0065V26.0176Z" fill="#72361F"/>
<path d="M258.326 39.0225H76.6357V51.6581H258.326V39.0225Z" fill="#783F21"/>
<path opacity="0.44" d="M154.451 39.0225H146.079V51.5528H154.451V39.0225Z" fill="#72361F"/>
<path opacity="0.44" d="M113.595 39.0225H100.38V51.5528H113.595V39.0225Z" fill="#72361F"/>
<path opacity="0.44" d="M215.101 39.0225H203.519V51.5528H215.101V39.0225Z" fill="#72361F"/>
<mask id="mask0_1152_10929" style="mask-type:alpha" maskUnits="userSpaceOnUse" x="76" y="39" width="183" height="13">
<path d="M258.326 39.0225H76.6357V51.6581H258.326V39.0225Z" fill="#783F21"/>
</mask>
<g mask="url(#mask0_1152_10929)">
<path d="M87.2709 21.6494C87.9027 26.0192 91.5355 49.6584 109.015 57.819C111.121 58.8193 119.597 62.7679 124.125 59.2405C130.074 54.5548 122.493 41.7612 129.021 33.9692C133.233 28.9149 141.499 28.1778 146.922 29.0728C165.665 32.1791 166.033 57.661 184.144 61.715C195.622 64.2947 207.731 56.8186 213.996 52.9227C227.053 44.8674 229.369 36.2331 237.161 36.0751C241.952 35.9698 249.007 39.0234 257.852 54.66" stroke="#300F0F" stroke-width="3.15891" stroke-miterlimit="10" stroke-linecap="round" stroke-linejoin="round"/>
<path d="M101.644 31.8105C99.6433 34.8642 99.3274 38.6549 100.96 41.6558C102.539 44.5515 105.329 45.6045 106.224 45.8677C107.172 46.1836 110.594 47.0786 113.595 45.1833C116.543 43.2879 118.018 39.3393 117.123 35.338" stroke="#300F0F" stroke-width="3.15891" stroke-miterlimit="10" stroke-linecap="round" stroke-linejoin="round"/>
<path d="M134.97 52.87C134.707 52.133 132.391 45.4466 136.392 39.55C136.602 39.1814 140.025 34.2325 144.447 33.9166C150.712 33.4427 158.452 42.2877 160.926 56.7134" stroke="#300F0F" stroke-width="3.15891" stroke-miterlimit="10" stroke-linecap="round" stroke-linejoin="round"/>
<path d="M143.394 43.392C141.604 44.2871 141.288 47.9198 142.341 50.3943C142.552 50.8682 143.868 53.8691 146.184 53.9218C148.448 53.9744 150.502 51.1314 150.396 48.6569C150.291 45.0768 145.605 42.3391 143.394 43.392Z" stroke="#300F0F" stroke-width="3.15891" stroke-miterlimit="10" stroke-linecap="round" stroke-linejoin="round"/>
<path d="M173.615 31.4944C173.773 33.2318 174.246 36.5486 176.405 39.9181C179.511 44.7618 183.934 46.6572 185.513 47.2889C187.04 47.9207 191.884 49.8161 197.464 48.3419C201.15 47.3942 202.624 45.5515 211.838 37.1278C215.049 34.1795 217.682 31.8629 219.208 30.4414" stroke="#300F0F" stroke-width="3.15891" stroke-miterlimit="10" stroke-linecap="round" stroke-linejoin="round"/>
<path d="M228.369 54.9748C228.843 50.6576 231.686 47.1828 235.371 46.1825C235.74 46.0772 240.583 44.8663 243.795 48.2885C246.111 50.7629 245.953 53.9745 245.901 54.6063" stroke="#300F0F" stroke-width="3.15891" stroke-miterlimit="10" stroke-linecap="round" stroke-linejoin="round"/>
<path d="M190.462 32.8637C190.462 37.6547 192.779 41.1821 195.358 41.656C197.57 42.0245 199.676 40.0765 200.623 39.1815C203.256 36.7597 203.94 33.706 204.151 32.4951" stroke="#300F0F" stroke-width="3.15891" stroke-miterlimit="10" stroke-linecap="round" stroke-linejoin="round"/>
</g>
<path d="M140.972 34.5476H140.92L136.339 22.2279L140.077 5.06445H150.028L153.819 22.2279L149.185 34.5476V71.5596H140.972V34.5476Z" fill="#C9C9C9"/>
<path d="M146.554 34.5476L151.187 22.2279L147.396 5.06445H150.028L153.819 22.2279L149.186 34.5476V71.5596H146.554V34.5476Z" fill="#B5B5B5"/>
<path d="M132.391 147.848V87.7762C132.391 84.8806 134.128 82.3534 136.655 81.3005C137.708 80.8793 137.866 79.4578 136.971 78.7207L133.444 75.7724C132.496 74.9826 131.969 73.8244 131.969 72.6135V69.8231C131.969 68.7701 132.812 67.9277 133.865 67.9277H156.188C157.241 67.9277 158.083 68.7701 158.083 69.8231V72.6135C158.083 73.8244 157.557 74.9826 156.609 75.7724L153.082 78.7207C152.239 79.4578 152.397 80.8266 153.397 81.3005C155.925 82.4061 157.662 84.8806 157.662 87.7762V147.848C157.662 151.744 154.503 154.903 150.607 154.903H139.34C135.55 154.956 132.391 151.744 132.391 147.848Z" fill="#F45145"/>
<path d="M153.555 147.848V87.7762C153.555 84.8806 151.818 82.3534 149.291 81.3005C148.238 80.8793 148.08 79.4578 148.975 78.7207L152.502 75.7724C153.45 74.9826 153.977 73.8244 153.977 72.6135V69.8231C153.977 68.7701 153.134 67.9277 152.081 67.9277H156.293C157.346 67.9277 158.189 68.7701 158.189 69.8231V72.6135C158.189 73.8244 157.662 74.9826 156.714 75.7724L153.187 78.7207C152.345 79.4578 152.502 80.8266 153.503 81.3005C156.03 82.4061 157.767 84.8806 157.767 87.7762V147.848C157.767 151.744 154.608 154.903 150.712 154.903H146.5C150.396 154.956 153.555 151.744 153.555 147.848Z" fill="#DB493E"/>
<path d="M142.815 144.635V94.4615C142.815 92.9874 141.657 91.8291 140.183 91.8291C138.708 91.8291 137.55 92.9874 137.55 94.4615V144.635C137.55 146.109 138.708 147.268 140.183 147.268C141.657 147.268 142.815 146.057 142.815 144.635Z" fill="#AA3930"/>
<path d="M152.555 144.635V94.4615C152.555 92.9874 151.397 91.8291 149.923 91.8291C148.448 91.8291 147.29 92.9874 147.29 94.4615V144.635C147.29 146.109 148.448 147.268 149.923 147.268C151.397 147.268 152.555 146.057 152.555 144.635Z" fill="#AA3930"/>
<path d="M219.893 4.79984C219.05 5.74752 217.787 7.11638 216.734 8.27465C215.628 9.48557 213.786 9.69616 212.417 8.69583C209.416 6.53724 204.467 2.79919 198.202 2.32535C189.146 1.58827 183.039 4.79983 177.511 9.11701C169.35 15.5401 164.191 23.2268 161.453 27.9652C163.506 29.7553 164.401 30.2817 165.981 31.598C168.56 28.9129 173.615 23.2795 180.775 21.4894C181.881 21.2262 183.829 20.7523 186.145 21.4894C186.935 21.7527 188.409 22.3318 189.725 23.806C191.989 26.3331 191.831 29.4394 191.831 30.1238V50.5514H205.256V31.0188C204.993 27.5967 206.467 24.4377 209.047 23.1215C209.258 23.0162 211.785 21.7527 214.259 22.7004C216.049 23.3848 218.261 25.4381 219.945 27.0702C220.103 27.2281 220.525 27.5967 221.209 27.8599C221.578 27.9652 221.999 28.0705 222.367 28.0179C224.789 27.9652 229.738 27.8599 233.16 27.702C234.792 27.6493 236.056 26.3331 236.056 24.701V6.90579C236.056 5.27368 234.74 3.95746 233.108 3.90481C229.843 3.85216 225.21 3.74687 222.42 3.69422C221.472 3.69422 220.525 4.11541 219.893 4.79984Z" fill="#C9C9C9"/>
<path d="M185.04 20.5413C183.565 18.8566 181.775 18.1721 180.933 17.8563C178.3 17.0139 175.984 17.5404 174.72 17.8563C170.772 18.8039 167.402 20.8046 164.612 22.9632C163.348 24.8059 162.295 26.4906 161.453 27.9121C163.506 29.7022 164.401 30.2287 165.981 31.5449C168.56 28.8598 173.615 23.2264 180.775 21.4364C181.775 21.1731 183.565 20.7519 185.671 21.2784C185.513 21.1205 185.303 20.8572 185.04 20.5413Z" fill="#ABABAB"/>
<path d="M235.319 25.0681C231.37 25.1734 225.631 25.3314 222.841 25.384C222.367 25.384 221.893 25.3314 221.472 25.1734C220.682 24.9102 220.156 24.4363 219.998 24.2784C218.05 22.4357 215.47 20.0665 213.417 19.2768C210.574 18.1712 207.626 19.698 207.415 19.8033C204.467 21.3827 202.782 24.9628 203.045 28.9641V50.6553H205.309V31.1227C205.046 27.7006 206.52 24.5416 209.1 23.2254C209.31 23.1201 211.837 21.8566 214.312 22.8042C216.102 23.4887 218.313 25.542 219.998 27.1741C220.156 27.332 220.577 27.7006 221.262 27.9638C221.63 28.0691 222.051 28.1744 222.42 28.1217C224.842 28.0691 229.791 27.9638 233.213 27.8058C234.74 27.7532 236.003 26.5423 236.108 25.0681C235.845 25.0155 235.582 25.0681 235.319 25.0681Z" fill="#ABABAB"/>
<path d="M200.202 143.792H197.675C191.041 143.792 185.776 137.264 185.987 129.419L188.461 50.6045H209.416L211.89 129.419C212.101 137.264 206.836 143.792 200.202 143.792Z" fill="#3B69A9"/>
<path d="M211.89 129.419L209.416 50.6045H204.309L206.783 129.419C206.994 136.738 202.413 142.897 196.411 143.687C196.833 143.74 197.254 143.792 197.675 143.792H200.202C206.836 143.792 212.101 137.264 211.89 129.419Z" fill="#355E98"/>
<path d="M212.154 56.9731H185.724C183.986 56.9731 182.565 55.5516 182.565 53.8142C182.565 52.0768 183.986 50.6553 185.724 50.6553H212.154C213.891 50.6553 215.313 52.0768 215.313 53.8142C215.313 55.5516 213.891 56.9731 212.154 56.9731Z" fill="#355E98"/>
<path opacity="0.23" d="M187.461 85.2472L209.942 69.7686L210.416 84.0363L187.093 97.0931L187.461 85.2472Z" fill="#72361F"/>
<path d="M271.909 24.7549L132.022 133.106L159.347 168.327L314.291 78.9302L271.909 24.7549Z" fill="#C9C9C9"/>
<path d="M308.184 70.085L152.608 159.587L159.557 168.485L312.344 80.0355L308.184 70.085Z" fill="#E1E1E1"/>
<path d="M346.249 43.2337L317.451 6.06387C313.028 0.32518 304.762 -0.727788 299.024 3.74734L295.97 6.11652L306.71 19.9631C307.447 19.6998 308.184 19.5945 308.974 19.5945H309.027C309.185 19.5945 309.395 19.5945 309.553 19.5945C309.606 19.5945 309.606 19.5945 309.659 19.5945C310.132 19.6472 310.659 19.6998 311.133 19.8578C311.185 19.8578 311.291 19.9104 311.343 19.9104C311.449 19.9631 311.554 19.9631 311.712 20.0157C311.817 20.0684 311.922 20.0684 312.028 20.121C312.133 20.1737 312.238 20.2263 312.344 20.2263C312.449 20.279 312.607 20.3316 312.712 20.3843C312.765 20.4369 312.87 20.4369 312.923 20.4896C313.133 20.5949 313.291 20.7002 313.449 20.8581C313.502 20.9108 313.555 20.9634 313.66 21.0161C313.765 21.1214 313.923 21.2267 314.028 21.2793C314.081 21.3319 314.134 21.3846 314.239 21.4372C314.344 21.5425 314.45 21.6478 314.608 21.7531C314.66 21.8058 314.713 21.8584 314.765 21.9111C314.923 22.069 315.081 22.2796 315.239 22.4376L328.928 40.1275C329.086 40.3381 329.191 40.496 329.349 40.7066C329.402 40.7593 329.402 40.8119 329.454 40.9172C329.56 41.0751 329.612 41.1805 329.665 41.3384C329.718 41.391 329.718 41.4963 329.77 41.549C329.823 41.7069 329.876 41.8122 329.981 41.9702C330.034 42.0228 330.034 42.1281 330.086 42.1808C330.139 42.3914 330.244 42.602 330.297 42.8126C330.297 42.9179 330.349 42.9705 330.349 43.0758C330.402 43.2337 330.402 43.339 330.455 43.497C330.455 43.6023 330.507 43.7076 330.507 43.8129C330.507 43.9182 330.507 44.0235 330.56 44.1288C330.56 44.2341 330.56 44.392 330.613 44.4973C330.613 44.6026 330.613 44.6553 330.613 44.7606C330.613 45.287 330.56 45.7609 330.507 46.2347C330.507 46.2874 330.507 46.2874 330.507 46.34C330.455 46.498 330.455 46.6559 330.402 46.8665V46.9191C330.192 47.6562 329.876 48.3407 329.454 49.0251L340.827 63.714L342.617 62.6611C349.356 58.7124 351.146 49.5516 346.249 43.2337Z" fill="#FDC457"/>
<path d="M325.874 36.2837L312.186 18.5938C312.028 18.3832 311.87 18.2253 311.712 18.0673C311.659 18.0147 311.606 17.962 311.554 17.9094C311.448 17.8041 311.343 17.6988 311.185 17.5935C311.133 17.5409 311.08 17.4882 310.975 17.4356C310.869 17.3303 310.711 17.225 310.606 17.1723C310.553 17.1197 310.501 17.067 310.395 17.0144C310.238 16.9091 310.027 16.7511 309.869 16.6458C309.816 16.5932 309.711 16.5932 309.658 16.5405C309.553 16.4879 309.395 16.4352 309.29 16.3826C309.185 16.3299 309.079 16.2773 308.974 16.2773C308.869 16.2246 308.763 16.2246 308.658 16.172C308.553 16.1193 308.447 16.0667 308.29 16.0667C308.237 16.0667 308.132 16.014 308.079 16.014C307.605 15.8561 307.079 15.8035 306.605 15.7508C306.552 15.7508 306.552 15.7508 306.499 15.7508C306.342 15.7508 306.131 15.7508 305.973 15.7508H305.92C305.183 15.7508 304.394 15.9088 303.656 16.1194L296.022 6.06348L306.763 19.91C307.5 19.6468 308.237 19.5415 309.027 19.5415H309.079C309.237 19.5415 309.448 19.5415 309.606 19.5415C309.658 19.5415 309.658 19.5415 309.711 19.5415C310.185 19.5942 310.711 19.6468 311.185 19.8048C311.238 19.8048 311.343 19.8574 311.396 19.8574C311.501 19.91 311.606 19.91 311.764 19.9627C311.87 20.0153 311.975 20.0153 312.08 20.068C312.186 20.1206 312.291 20.1733 312.396 20.1733C312.501 20.2259 312.659 20.2786 312.765 20.3312C312.817 20.3839 312.923 20.3839 312.975 20.4365C313.186 20.5418 313.344 20.6471 313.502 20.8051C313.554 20.8577 313.607 20.9104 313.712 20.963C313.818 21.0683 313.976 21.1736 314.081 21.2263C314.133 21.2789 314.186 21.3316 314.291 21.3842C314.397 21.4895 314.502 21.5948 314.66 21.7001C314.713 21.7527 314.765 21.8054 314.818 21.858C314.976 22.016 315.134 22.2266 315.292 22.3845L326.19 36.4417C326.032 36.4943 325.927 36.389 325.874 36.2837Z" fill="#F2B24C"/>
<path d="M314.186 21.4895C314.291 21.5948 314.396 21.7001 314.502 21.8054C314.449 21.7001 314.344 21.5948 314.186 21.4895Z" fill="#323B40"/>
<path d="M312.712 20.4363C312.607 20.3836 312.449 20.331 312.343 20.2783C312.449 20.331 312.554 20.3836 312.712 20.4363Z" fill="#323B40"/>
<path d="M312.027 20.1217C311.974 20.1217 311.922 20.0693 311.87 20.0693C311.922 20.1217 311.974 20.1217 312.027 20.1217Z" fill="#323B40"/>
<path d="M329.243 49.0247C328.77 49.7618 328.191 50.3935 327.506 50.92L323.031 54.3948C316.292 59.607 306.657 58.3961 301.445 51.6571L297.233 46.1817C292.021 39.4426 293.232 29.808 299.971 24.5958L304.446 21.121C305.13 20.5945 305.92 20.1733 306.763 19.91L296.022 6.06348L267.961 27.8073L309.658 81.6141L342.458 62.6607L340.668 63.7136L329.243 49.0247Z" fill="#323B40"/>
<path d="M340.616 63.7136L309.606 81.6141L306.763 77.9813L337.667 59.9229L340.616 63.7136Z" fill="#2D363A"/>
<path d="M301.445 196.546H117.07V103.885H308.763V189.175C308.816 193.229 305.499 196.546 301.445 196.546Z" fill="#7D4025"/>
<path d="M117.807 129.894C120.424 129.894 122.545 127.772 122.545 125.155C122.545 122.538 120.424 120.417 117.807 120.417C115.19 120.417 113.069 122.538 113.069 125.155C113.069 127.772 115.19 129.894 117.807 129.894Z" fill="#783F21"/>
<path d="M102.96 72.2957V44.9711C102.96 34.494 94.4835 26.0176 84.0065 26.0176C73.5294 26.0176 65.053 34.494 65.053 44.9711V72.243C65.053 89.6697 50.8905 103.832 33.4639 103.832V183.858C33.4639 190.86 39.0973 196.494 46.0995 196.494H121.913C128.916 196.494 134.549 190.86 134.549 183.858V103.832C117.07 103.885 102.96 89.7223 102.96 72.2957Z" fill="#72361F"/>
<path d="M303.604 196.547H122.756L130.653 189.176H310.448L303.604 196.547Z" fill="#72361F"/>
<path d="M308.816 103.885V175.171V183.858C308.816 186.753 306.447 189.123 303.551 189.123H294.864H280.175V196.493H303.604C310.606 196.493 316.239 190.86 316.239 183.858V103.832H308.816V103.885Z" fill="#72361F"/>
<path d="M95.5893 72.2957V44.9711C95.5893 34.494 87.1129 26.0176 76.6359 26.0176C66.1588 26.0176 57.6824 34.494 57.6824 44.9711V72.243C57.6824 89.6697 43.5199 103.832 26.0933 103.832V183.858C26.0933 190.86 31.7267 196.494 38.7289 196.494H114.543C121.545 196.494 127.178 190.86 127.178 183.858V103.832C109.699 103.885 95.5893 89.7223 95.5893 72.2957Z" fill="#D98C40"/>
<path d="M27.1987 189.176C29.1994 193.546 33.5692 196.547 38.6761 196.547H114.49C119.597 196.547 123.967 193.546 125.967 189.176H27.1987Z" fill="#C87634"/>
<g filter="url(#filter0_n_1152_10929)">
<mask id="mask1_1152_10929" style="mask-type:alpha" maskUnits="userSpaceOnUse" x="113" y="103" width="204" height="94">
<path d="M316.187 183.911C316.187 190.913 310.554 196.546 303.551 196.546H113.069H114.333C121.282 196.546 126.968 190.913 126.968 183.963L127.179 103.885H316.187V183.911Z" fill="white"/>
</mask>
<g mask="url(#mask1_1152_10929)">
<path opacity="0.08" d="M130.759 169.802C135.497 161.8 152.239 170.645 144.605 179.437C138.656 186.334 126.231 177.489 130.759 169.802ZM130.759 169.802C128.916 172.908 133.18 165.696 130.759 169.802Z" stroke="#300F0F" stroke-width="3.15891" stroke-miterlimit="10" stroke-linecap="round" stroke-linejoin="round"/>
<path opacity="0.08" d="M150.186 97.253C150.239 110.047 154.503 129.316 162.453 135.844C178.248 148.743 228.106 127.421 228.79 106.73C229.633 81.4058 156.925 56.0292 147.027 68.1384C143.974 71.8764 144.237 82.6694 146.132 83.2485C146.764 83.4591 147.343 82.0903 148.08 82.2482C150.291 82.5641 150.186 94.568 150.186 97.253Z" stroke="#300F0F" stroke-width="3.07652" stroke-miterlimit="10" stroke-linecap="round" stroke-linejoin="round"/>
<path opacity="0.08" d="M117.228 108.256C104.645 143.267 154.766 136.423 164.138 159.536C174.036 183.912 141.815 202.971 122.914 208.551" stroke="#300F0F" stroke-width="3.15891" stroke-miterlimit="10" stroke-linecap="round" stroke-linejoin="round"/>
<path opacity="0.08" d="M119.018 159.589C140.288 145.058 162.137 157.799 149.186 181.754C141.604 195.758 126.283 202.918 110.805 203.813" stroke="#300F0F" stroke-width="3.15891" stroke-miterlimit="10" stroke-linecap="round" stroke-linejoin="round"/>
<path opacity="0.08" d="M296.18 135.844C298.234 137.108 301.761 138.792 306.184 138.792C308.184 138.792 310.711 138.74 312.87 137.002C313.449 136.528 315.187 135.107 315.239 133.264C315.344 129.947 310.238 126.736 305.604 126.42C301.866 126.209 296.602 127.789 295.601 131.579C295.18 133.264 295.707 134.844 296.18 135.844Z" stroke="#300F0F" stroke-width="3.15891" stroke-miterlimit="10" stroke-linecap="round" stroke-linejoin="round"/>
<path opacity="0.08" d="M289.283 148.111C294.074 150.743 298.813 150.006 308.237 148.479C314.607 147.479 318.082 146.847 321.61 144.004C322.61 143.214 327.875 138.95 328.296 132.474C328.875 124.103 320.978 117.259 314.555 114.626C303.393 110.098 293.021 116.785 291.179 117.943C287.967 120.049 280.07 125.103 280.017 133.527C279.965 140.213 284.756 145.636 289.283 148.111Z" stroke="#300F0F" stroke-width="3.15891" stroke-miterlimit="10" stroke-linecap="round" stroke-linejoin="round"/>
<path opacity="0.08" d="M326.611 158.535C323.821 160.694 314.66 167.433 302.024 165.906C291.916 164.695 285.545 158.851 283.755 157.114C275.858 149.375 274.594 140.056 274.278 137.108C273.963 134.159 273.225 127.104 277.016 119.47C280.228 113.047 284.913 109.625 287.809 107.572C299.708 99.0426 312.554 100.254 314.923 100.517C319.346 100.991 326.032 101.728 332.034 106.835C342.564 115.785 341.195 130.737 340.931 133.212C339.563 148.322 328.717 156.956 326.611 158.535Z" stroke="#300F0F" stroke-width="3.15891" stroke-miterlimit="10" stroke-linecap="round" stroke-linejoin="round"/>
<path opacity="0.08" d="M331.665 165.539C329.928 167.223 327.19 169.487 323.4 171.33C308.869 178.28 292.6 171.541 283.545 167.803C274.226 163.959 267.803 159.484 258.958 153.429C243.637 142.847 241.794 138.425 231.949 135.898C228.79 135.055 218.682 132.633 208.52 137.214C205.467 138.583 203.15 140.373 200.729 142.373C188.988 151.955 185.724 162.801 175.457 185.545C173.088 190.81 169.561 198.444 164.927 207.657" stroke="#300F0F" stroke-width="3.15891" stroke-miterlimit="10" stroke-linecap="round" stroke-linejoin="round"/>
<path opacity="0.08" d="M188.093 236.087C196.411 238.772 213.312 200.865 224.684 204.919C231.054 207.183 230.422 220.872 235.477 221.346C241.057 221.819 246.533 205.551 247.059 203.972C248.376 199.918 257.273 172.962 242.321 155.535C240.268 153.166 235.635 147.901 228.001 146.216C228.001 146.216 219.84 144.426 210.205 149.217C184.776 161.695 177.3 232.56 188.093 236.087Z" stroke="#300F0F" stroke-width="3.15891" stroke-miterlimit="10" stroke-linecap="round" stroke-linejoin="round"/>
<path opacity="0.08" d="M210.205 190.284C213.206 192.495 220.84 187.283 224.947 182.386C227 179.964 231.317 174.857 229.369 170.909C227.843 167.855 223.157 166.75 219.682 167.645C215.733 168.645 213.891 172.12 212.311 175.015C209.784 179.701 207.257 188.125 210.205 190.284Z" stroke="#300F0F" stroke-width="3.15891" stroke-miterlimit="10" stroke-linecap="round" stroke-linejoin="round"/>
<path opacity="0.08" d="M230.738 85.6712C235.898 90.9887 241.636 98.5701 240.004 106.099C238.793 111.68 234.213 114.049 235.108 115.523C236.845 118.419 256.115 114.259 268.803 100.781C275.542 93.6211 278.648 85.6712 280.122 80.459" stroke="#300F0F" stroke-width="3.15891" stroke-miterlimit="10" stroke-linecap="round" stroke-linejoin="round"/>
<path opacity="0.08" d="M179.669 116.574C183.67 120.891 191.568 124.682 197.57 121.839C203.361 119.101 204.624 111.52 204.94 109.572C207.573 93.8824 193.674 74.929 185.46 76.4558C176.51 78.0879 168.929 104.886 179.669 116.574Z" stroke="#300F0F" stroke-width="3.15891" stroke-miterlimit="10" stroke-linecap="round" stroke-linejoin="round"/>
<path opacity="0.08" d="M187.671 84.3011C190.62 84.3537 193.147 93.4093 193.357 100.78C193.463 104.465 193.094 113.31 190.567 113.784C187.408 114.311 180.195 101.78 183.196 91.0928C183.249 90.8295 185.144 84.2484 187.671 84.3011Z" stroke="#300F0F" stroke-width="3.15891" stroke-miterlimit="10" stroke-linecap="round" stroke-linejoin="round"/>
<path opacity="0.08" d="M332.982 188.125C312.449 200.813 302.762 200.34 297.707 197.023C294.074 194.654 292.495 190.547 282.86 182.913C278.806 179.701 275.595 177.648 271.699 178.069C267.908 178.49 265.328 181.018 264.644 181.807C262.169 184.44 261.643 187.493 260.906 192.232C260.064 197.707 260.853 199.234 259.8 204.499C259.221 207.237 258.484 209.395 257.958 210.817" stroke="#300F0F" stroke-width="3.15891" stroke-miterlimit="10" stroke-linecap="round" stroke-linejoin="round"/>
<path opacity="0.08" d="M271.172 201.024C267.329 195.443 266.855 190.02 269.066 188.02C271.699 185.703 277.543 188.757 278.174 189.073C284.703 192.548 286.546 199.813 286.967 201.708" stroke="#300F0F" stroke-width="3.15891" stroke-miterlimit="10" stroke-linecap="round" stroke-linejoin="round"/>
<path opacity="0.08" d="M176.773 146.691C172.982 147.323 168.981 151.008 169.771 155.115C170.297 157.852 172.877 160.432 175.404 160.379C180.195 160.327 184.197 150.797 181.722 147.744C180.353 146.059 177.405 146.586 176.773 146.691Z" stroke="#300F0F" stroke-width="3.15891" stroke-miterlimit="10" stroke-linecap="round" stroke-linejoin="round"/>
<path opacity="0.08" d="M201.255 177.648C203.308 170.961 206.362 161.063 215.47 157.115C216.734 156.588 223.209 153.745 230.106 156.799C237.267 159.958 239.478 167.118 239.952 168.75C242.953 179.438 234.792 187.914 234.318 188.388C232.686 190.073 231.265 190.81 224.157 194.021C210.31 200.181 203.361 203.235 201.255 201.919C195.042 197.97 200.571 179.964 201.255 177.648Z" stroke="#300F0F" stroke-width="3.15891" stroke-miterlimit="10" stroke-linecap="round" stroke-linejoin="round"/>
<path opacity="0.08" d="M124.914 111.679C125.178 113.942 126.441 123.735 134.075 127.842C136.339 129.053 141.183 130.895 143.236 128.895C145.921 126.315 141.236 120.05 138.34 107.783C134.865 93.3569 137.445 85.8281 135.181 85.3016C131.969 84.5119 123.177 97.9899 124.914 111.679Z" stroke="#300F0F" stroke-width="4.10932" stroke-miterlimit="10" stroke-linecap="round" stroke-linejoin="round"/>
<path opacity="0.08" d="M313.396 203.445C302.551 197.601 297.444 189.177 299.181 185.544C300.918 181.964 310.606 180.753 321.82 185.544" stroke="#300F0F" stroke-width="3.15891" stroke-miterlimit="10" stroke-linecap="round" stroke-linejoin="round"/>
<path opacity="0.08" d="M267.066 170.276C267.013 168.17 262.327 165.275 259.695 167.117C257.536 168.644 257.536 172.646 259.168 173.962C261.38 175.752 267.118 172.646 267.066 170.276Z" stroke="#300F0F" stroke-width="3.15891" stroke-miterlimit="10" stroke-linecap="round" stroke-linejoin="round"/>
<path opacity="0.08" d="M243.374 122.366C240.741 123.735 239.478 124.419 239.162 125.525C238.056 129.368 245.901 135.265 252.85 137.898C257.062 139.53 262.011 141.32 265.644 138.74C270.119 135.581 269.961 127.42 267.066 122.893C266.592 122.156 265.381 120.313 263.064 119.26C261.959 118.733 260.537 118.102 257.062 118.681C250.376 119.839 247.27 120.313 243.374 122.366Z" stroke="#300F0F" stroke-width="2.8177" stroke-miterlimit="10" stroke-linecap="round" stroke-linejoin="round"/>
<path opacity="0.08" d="M255.167 125.947C252.008 126.263 249.323 128.79 250.429 130.685C251.324 132.212 254.43 133.054 256.905 132.475C259.695 131.844 261.538 129.474 260.379 127.737C259.484 126.368 257.115 125.736 255.167 125.947Z" stroke="#300F0F" stroke-width="3.15891" stroke-miterlimit="10" stroke-linecap="round" stroke-linejoin="round"/>
<path opacity="0.08" d="M170.561 88.5137C169.508 90.3564 161.452 105.256 168.455 119.734C169.613 122.103 173.193 129.58 181.09 132.37C192.673 136.477 205.467 127.632 211.627 119.366C218.418 110.258 218.471 100.149 218.313 96.2003" stroke="#300F0F" stroke-width="3.15891" stroke-miterlimit="10" stroke-linecap="round" stroke-linejoin="round"/>
</g>
</g>
<mask id="mask2_1152_10929" style="mask-type:alpha" maskUnits="userSpaceOnUse" x="26" y="26" width="102" height="171">
<path d="M95.5896 72.2969V44.9723C95.5896 34.4952 87.1132 26.0188 76.6362 26.0188C66.1591 26.0188 57.6827 34.4952 57.6827 44.9723V72.2442C57.6827 89.6709 43.5202 103.833 26.0936 103.833V183.859C26.0936 190.861 31.727 196.495 38.7292 196.495H114.543C121.545 196.495 127.179 190.861 127.179 183.859V103.833C109.699 103.886 95.5896 89.7235 95.5896 72.2969Z" fill="#D98C40"/>
</mask>
<g mask="url(#mask2_1152_10929)">
<path d="M45.4674 212.237C35.8327 198.759 42.1506 173.277 57.7345 165.222C65 161.484 72.0549 162.642 74.1082 162.958C93.6935 166.433 110.541 191.967 103.96 207.183C96.4839 224.504 58.1031 229.821 45.4674 212.237Z" stroke="#CF8139" stroke-width="3.15891" stroke-miterlimit="10" stroke-linecap="round" stroke-linejoin="round"/>
<path d="M26.5141 197.495C22.3022 185.702 32.1475 167.959 45.3096 159.588C69.8965 143.899 97.0105 166.538 115.859 151.164C131.601 138.266 125.651 111.783 129.021 111.678C134.128 111.52 159.61 172.277 129.021 204.339C99.1691 235.613 34.5693 220.081 26.5141 197.495Z" stroke="#CF8139" stroke-width="3.15891" stroke-miterlimit="10" stroke-linecap="round" stroke-linejoin="round"/>
<path d="M58.9981 200.654C54.1545 195.39 51.6274 186.229 55.9972 179.595C59.2614 174.646 65.0527 173.593 66.8954 173.277C75.2666 171.698 88.6919 174.909 91.1138 185.228C93.1671 193.915 86.3754 203.497 77.4251 205.919C70.8967 207.709 63.5786 205.656 58.9981 200.654Z" stroke="#CF8139" stroke-width="3.15891" stroke-miterlimit="10" stroke-linecap="round" stroke-linejoin="round"/>
<path d="M112.542 184.333C115.332 183.07 115.648 174.067 111.226 170.75C109.699 169.592 106.856 168.592 104.961 169.908C102.907 171.277 103.171 174.541 103.223 175.067C103.697 180.49 109.91 185.544 112.542 184.333Z" stroke="#CF8139" stroke-width="2.58641" stroke-miterlimit="10" stroke-linecap="round" stroke-linejoin="round"/>
<path d="M24.4082 132.579C28.2516 131.21 33.6744 133.737 35.6224 137.475C40.3081 146.478 25.04 163.168 20.1964 161.325C15.2474 159.482 15.6159 135.738 24.4082 132.579Z" stroke="#CF8139" stroke-width="3.15891" stroke-miterlimit="10" stroke-linecap="round" stroke-linejoin="round"/>
<path d="M22.1445 117.996C25.8299 121.208 31.6213 125.472 39.5186 128.684C49.6271 132.791 58.63 133.37 64.1054 133.264C72.3186 131.211 76.8464 127.631 79.5314 124.314C93.2727 107.519 82.4798 69.7176 51.1012 31.1262" stroke="#CF8139" stroke-width="3.15891" stroke-miterlimit="10" stroke-linecap="round" stroke-linejoin="round"/>
<path d="M28.2515 102.358C32.4634 112.73 46.0467 121.259 55.8394 117.468C62.6837 114.836 65.3161 107.149 66.1585 104.727C71.9498 87.8798 61.894 64.2406 50.5745 63.2402C38.7812 62.2399 21.3546 85.4579 28.2515 102.358Z" stroke="#CF8139" stroke-width="3.15891" stroke-miterlimit="10" stroke-linecap="round" stroke-linejoin="round"/>
<path d="M125.336 53.7642C122.229 43.2345 113.174 28.8615 104.855 30.125C95.2733 31.5992 92.483 53.1851 91.6406 55.8702C85.5334 75.5081 95.4839 100.464 105.329 101.674C112.647 102.569 119.544 89.7759 121.65 85.8799C123.335 82.7736 130.021 69.5062 125.336 53.7642Z" stroke="#CF8139" stroke-width="3.15891" stroke-miterlimit="10" stroke-linecap="round" stroke-linejoin="round"/>
<path d="M98.5375 113.048C96.958 113.89 94.7994 115.417 85.3227 134.318C80.7422 143.426 80.2684 145.005 81.1108 146.427C83.6379 150.744 96.6948 149.796 105.645 143.847C116.333 136.687 123.44 121.155 118.281 114.627C114.543 109.836 104.803 109.678 98.5375 113.048Z" stroke="#CF8139" stroke-width="3.15891" stroke-miterlimit="10" stroke-linecap="round" stroke-linejoin="round"/>
<path d="M104.065 120.944C98.2213 125.051 92.8511 132.948 94.7991 135.37C97.0103 138.108 109.383 134.791 111.91 127.367C112.91 124.366 112.542 119.944 110.33 118.838C108.435 117.943 105.855 119.681 104.065 120.944Z" stroke="#CF8139" stroke-width="3.15891" stroke-miterlimit="10" stroke-linecap="round" stroke-linejoin="round"/>
<path d="M69.0016 185.912C63.2629 188.966 65.053 205.181 69.686 206.603C73.74 207.866 83.8485 198.811 80.9002 191.493C79.1101 186.912 72.4764 184.069 69.0016 185.912Z" stroke="#CF8139" stroke-width="3.15891" stroke-miterlimit="10" stroke-linecap="round" stroke-linejoin="round"/>
<path d="M41.6244 143.794C41.3611 145.531 46.3101 147.953 50.4167 148.374C51.8382 148.532 54.3127 148.743 55.313 147.321C56.1554 146.163 55.7869 144.268 54.9445 143.109C52.2068 139.319 41.9929 141.425 41.6244 143.794Z" stroke="#CF8139" stroke-width="3.15891" stroke-miterlimit="10" stroke-linecap="round" stroke-linejoin="round"/>
<path d="M34.9379 94.3038C35.4644 102.728 44.7305 110.888 49.5215 109.045C53.8387 107.361 55.9973 96.9888 51.4695 90.7763C48.3106 86.4591 41.5189 83.6161 37.7809 86.1959C34.5693 88.4071 34.8852 93.5667 34.9379 94.3038Z" stroke="#CF8139" stroke-width="3.15891" stroke-miterlimit="10" stroke-linecap="round" stroke-linejoin="round"/>
<path d="M73.74 39.0214C71.792 40.3377 72.0026 46.3396 75.8459 49.5512C80.1631 53.1313 86.6915 51.2886 87.4286 49.0247C88.5869 45.4972 76.8989 36.8629 73.74 39.0214Z" stroke="#CF8139" stroke-width="3.15891" stroke-miterlimit="10" stroke-linecap="round" stroke-linejoin="round"/>
<path d="M151.133 155.378C143.657 152.693 129.916 151.113 123.229 159.589C115.701 169.119 123.124 183.703 124.282 185.914C125.125 187.493 132.074 200.076 146.921 202.235C155.714 203.498 168.718 201.287 173.246 192.758C179.563 180.807 166.875 161.064 151.133 155.378Z" stroke="#CF8139" stroke-width="2.58641" stroke-miterlimit="10" stroke-linecap="round" stroke-linejoin="round"/>
</g>
<path d="M117.807 154.954C120.424 154.954 122.545 152.833 122.545 150.216C122.545 147.599 120.424 145.478 117.807 145.478C115.19 145.478 113.069 147.599 113.069 150.216C113.069 152.833 115.19 154.954 117.807 154.954Z" fill="#72361F"/>
<path d="M117.807 129.894C120.424 129.894 122.545 127.772 122.545 125.155C122.545 122.538 120.424 120.417 117.807 120.417C115.19 120.417 113.069 122.538 113.069 125.155C113.069 127.772 115.19 129.894 117.807 129.894Z" fill="#72361F"/>
<path d="M117.807 179.962C120.424 179.962 122.545 177.841 122.545 175.224C122.545 172.607 120.424 170.485 117.807 170.485C115.19 170.485 113.069 172.607 113.069 175.224C113.069 177.841 115.19 179.962 117.807 179.962Z" fill="#72361F"/>
<path d="M34.938 129.894C37.5546 129.894 39.6763 127.772 39.6763 125.155C39.6763 122.538 37.5546 120.417 34.938 120.417C32.3208 120.417 30.1996 122.538 30.1996 125.155C30.1996 127.772 32.3208 129.894 34.938 129.894Z" fill="#72361F"/>
<path d="M34.938 154.954C37.5546 154.954 39.6763 152.833 39.6763 150.216C39.6763 147.599 37.5546 145.478 34.938 145.478C32.3208 145.478 30.1996 147.599 30.1996 150.216C30.1996 152.833 32.3208 154.954 34.938 154.954Z" fill="#72361F"/>
<path d="M34.938 179.962C37.5546 179.962 39.6763 177.841 39.6763 175.224C39.6763 172.607 37.5546 170.485 34.938 170.485C32.3208 170.485 30.1996 172.607 30.1996 175.224C30.1996 177.841 32.3208 179.962 34.938 179.962Z" fill="#72361F"/>
<path d="M76.6359 51.6581C80.125 51.6581 82.9538 48.8293 82.9538 45.3403C82.9538 41.8507 80.125 39.0225 76.6359 39.0225C73.1464 39.0225 70.3181 41.8507 70.3181 45.3403C70.3181 48.8293 73.1464 51.6581 76.6359 51.6581Z" fill="#72361F"/>
<defs>
<filter id="filter0_n_1152_10929" x="113.069" y="103.885" width="203.118" height="92.6616" filterUnits="userSpaceOnUse" color-interpolation-filters="sRGB">
<feFlood flood-opacity="0" result="BackgroundImageFix"/>
<feBlend mode="normal" in="SourceGraphic" in2="BackgroundImageFix" result="shape"/>
<feTurbulence type="fractalNoise" baseFrequency="2.2949247360229492 2.2949247360229492" stitchTiles="stitch" numOctaves="3" result="noise" seed="2890" />
<feColorMatrix in="noise" type="luminanceToAlpha" result="alphaNoise" />
<feComponentTransfer in="alphaNoise" result="coloredNoise1">
<feFuncA type="discrete" tableValues="1 1 1 1 1 1 1 1 1 1 1 1 1 1 1 1 1 1 1 1 1 1 1 1 1 1 1 1 1 1 1 1 1 1 1 1 1 1 1 1 1 1 1 1 1 1 1 1 1 1 1 0 0 0 0 0 0 0 0 0 0 0 0 0 0 0 0 0 0 0 0 0 0 0 0 0 0 0 0 0 0 0 0 0 0 0 0 0 0 0 0 0 0 0 0 0 0 0 0 0 "/>
</feComponentTransfer>
<feComposite operator="in" in2="shape" in="coloredNoise1" result="noise1Clipped" />
<feFlood flood-color="rgba(0, 0, 0, 0.25)" result="color1Flood" />
<feComposite operator="in" in2="noise1Clipped" in="color1Flood" result="color1" />
<feMerge result="effect1_noise_1152_10929">
<feMergeNode in="shape" />
<feMergeNode in="color1" />
</feMerge>
</filter>
</defs>
</svg>
