<svg width="232" height="216" viewBox="0 0 232 216" fill="none" xmlns="http://www.w3.org/2000/svg">
<g filter="url(#filter0_ii_1066_1064)">
<path d="M16.7759 137.446L44.0518 85.5648C46.399 81.1132 51.0125 78.3613 56.0306 78.3613H111.392C111.714 78.3613 112.023 78.4892 112.25 78.7169C112.478 78.9446 112.606 79.2534 112.606 79.5754V158.789L15.4809 143.84C15.4809 141.654 15.8856 139.469 16.7759 137.446Z" fill="url(#paint0_linear_1066_1064)"/>
</g>
<path d="M16.7758 137.446L44.0518 85.5648C46.399 81.1132 51.0124 78.3613 56.0305 78.3613H111.392C111.714 78.3613 112.023 78.4892 112.25 78.7169C112.478 78.9446 112.606 79.2534 112.606 79.5754V158.789L15.4808 143.84C15.4808 141.654 15.8855 139.469 16.7758 137.446Z" fill="url(#paint1_linear_1066_1064)"/>
<path d="M16.7758 137.446L44.0518 85.5648C46.399 81.1132 51.0124 78.3613 56.0305 78.3613H111.392C111.714 78.3613 112.023 78.4892 112.25 78.7169C112.478 78.9446 112.606 79.2534 112.606 79.5754V158.789L15.4808 143.84C15.4808 141.654 15.8855 139.469 16.7758 137.446Z" fill="url(#paint2_linear_1066_1064)"/>
<g filter="url(#filter1_ii_1066_1064)">
<path d="M217.825 37.8926H136.887C123.451 37.8926 112.606 48.7382 112.606 62.1738V153.237H242.106V62.1819C242.106 48.7463 231.26 37.9007 217.825 37.9007" fill="url(#paint3_linear_1066_1064)"/>
</g>
<path d="M217.825 37.8926H136.887C123.451 37.8926 112.606 48.7382 112.606 62.1738V153.237H242.106V62.1819C242.106 48.7463 231.26 37.9007 217.825 37.9007" fill="url(#paint4_linear_1066_1064)"/>
<path d="M217.825 37.8926H136.887C123.451 37.8926 112.606 48.7382 112.606 62.1738V153.237H242.106V62.1819C242.106 48.7463 231.26 37.9007 217.825 37.9007" fill="url(#paint5_linear_1066_1064)"/>
<path d="M17.9905 135.016H71.3284C76.2655 135.016 80.2315 131.05 80.2315 126.113V95.4373C80.2315 90.5001 76.2655 86.5342 71.3284 86.5342H43.6477L17.9905 135.016Z" fill="url(#paint6_linear_1066_1064)"/>
<path d="M17.9905 135.016H71.3284C76.2655 135.016 80.2315 131.05 80.2315 126.113V95.4373C80.2315 90.5001 76.2655 86.5342 71.3284 86.5342H43.6477L17.9905 135.016Z" fill="url(#paint7_linear_1066_1064)"/>
<path d="M17.9905 135.016H71.3284C76.2655 135.016 80.2315 131.05 80.2315 126.113V95.4373C80.2315 90.5001 76.2655 86.5342 71.3284 86.5342H43.6477L17.9905 135.016Z" fill="url(#paint8_linear_1066_1064)"/>
<path d="M112.606 199.809V143.072H242.106V185.241C242.106 193.254 235.55 199.809 227.537 199.809H112.606Z" fill="url(#paint9_linear_1066_1064)"/>
<path d="M112.606 199.809V143.072H242.106V185.241C242.106 193.254 235.55 199.809 227.537 199.809H112.606Z" fill="url(#paint10_linear_1066_1064)"/>
<path d="M112.606 199.809V143.072H242.106V185.241C242.106 193.254 235.55 199.809 227.537 199.809H112.606Z" fill="url(#paint11_linear_1066_1064)"/>
<g filter="url(#filter2_ii_1066_1064)">
<path d="M189.496 207.861C192.716 207.861 195.804 206.582 198.081 204.305C200.358 202.029 201.637 198.941 201.637 195.721C201.637 192.501 200.358 189.413 198.081 187.136C195.804 184.859 192.716 183.58 189.496 183.58C186.277 183.58 183.189 184.859 180.912 187.136C178.635 189.413 177.356 192.501 177.356 195.721C177.356 198.941 178.635 202.029 180.912 204.305C183.189 206.582 186.277 207.861 189.496 207.861Z" fill="#D9C3F0"/>
</g>
<path d="M242.107 159.299H238.06C231.18 159.299 225.596 165.045 225.919 172.006C226.243 178.562 231.909 183.58 238.465 183.58H242.107V159.299Z" fill="url(#paint12_linear_1066_1064)"/>
<path d="M112.606 143.111H15.4808V185.442C15.4808 193.374 21.9558 199.849 29.8877 199.849H112.606V143.111Z" fill="url(#paint13_linear_1066_1064)"/>
<path d="M112.606 143.111H15.4808V185.442C15.4808 193.374 21.9558 199.849 29.8877 199.849H112.606V143.111Z" fill="url(#paint14_linear_1066_1064)"/>
<path d="M112.606 143.111H15.4808V185.442C15.4808 193.374 21.9558 199.849 29.8877 199.849H112.606V143.111Z" fill="url(#paint15_linear_1066_1064)"/>
<path d="M112.606 143.111H15.4808V185.442C15.4808 193.374 21.9558 199.849 29.8877 199.849H112.606V143.111Z" fill="url(#paint16_linear_1066_1064)"/>
<path fill-rule="evenodd" clip-rule="evenodd" d="M101.121 199.849C101.299 198.5 101.388 197.124 101.388 195.721C101.385 191.389 100.494 187.105 98.7688 183.132C97.0439 179.159 94.5224 175.582 91.3602 172.622C88.198 169.662 84.4623 167.382 80.384 165.923C76.3057 164.465 71.9715 163.858 67.6494 164.141C63.3274 164.424 59.1092 165.59 55.2558 167.568C51.4024 169.546 47.9957 172.293 45.2462 175.64C42.4967 178.986 40.4629 182.861 39.2705 187.025C38.0782 191.189 37.7526 195.554 38.3139 199.849H101.121Z" fill="url(#paint17_linear_1066_1064)"/>
<path fill-rule="evenodd" clip-rule="evenodd" d="M220.899 199.849C221.077 198.5 221.166 197.124 221.166 195.721C221.163 191.389 220.272 187.105 218.547 183.132C216.822 179.159 214.3 175.582 211.138 172.622C207.976 169.662 204.24 167.382 200.162 165.923C196.084 164.465 191.749 163.858 187.427 164.141C183.105 164.424 178.887 165.59 175.034 167.568C171.18 169.546 167.774 172.293 165.024 175.64C162.275 178.986 160.241 182.861 159.048 187.025C157.856 191.189 157.53 195.554 158.092 199.849H220.899Z" fill="url(#paint18_linear_1066_1064)"/>
<g filter="url(#filter3_ii_1066_1064)">
<path d="M189.731 223.816C197.182 223.816 204.328 220.856 209.597 215.587C214.865 210.319 217.825 203.173 217.825 195.722C217.825 188.271 214.865 181.126 209.597 175.857C204.328 170.589 197.182 167.629 189.731 167.629C182.281 167.629 175.135 170.589 169.866 175.857C164.598 181.126 161.638 188.271 161.638 195.722C161.638 203.173 164.598 210.319 169.866 215.587C175.135 220.856 182.281 223.816 189.731 223.816Z" fill="url(#paint19_linear_1066_1064)"/>
<path d="M189.731 223.816C197.182 223.816 204.328 220.856 209.597 215.587C214.865 210.319 217.825 203.173 217.825 195.722C217.825 188.271 214.865 181.126 209.597 175.857C204.328 170.589 197.182 167.629 189.731 167.629C182.281 167.629 175.135 170.589 169.866 175.857C164.598 181.126 161.638 188.271 161.638 195.722C161.638 203.173 164.598 210.319 169.866 215.587C175.135 220.856 182.281 223.816 189.731 223.816Z" fill="url(#paint20_radial_1066_1064)"/>
</g>
<g filter="url(#filter4_ii_1066_1064)">
<path d="M189.755 206.087C192.505 206.087 195.142 204.994 197.086 203.05C199.031 201.106 200.123 198.468 200.123 195.719C200.123 192.969 199.031 190.332 197.086 188.387C195.142 186.443 192.505 185.351 189.755 185.351C187.005 185.351 184.368 186.443 182.424 188.387C180.479 190.332 179.387 192.969 179.387 195.719C179.387 198.468 180.479 201.106 182.424 203.05C184.368 204.994 187.005 206.087 189.755 206.087Z" fill="#D9C3F0"/>
</g>
<path d="M22.8461 183.58H15.4808V151.205H22.8461C27.7024 151.205 31.6683 155.171 31.6683 160.027V174.758C31.6683 179.614 27.7024 183.58 22.8461 183.58Z" fill="#F8DA4B"/>
<g filter="url(#filter5_ii_1066_1064)">
<path d="M69.7164 223.816C77.1672 223.816 84.3129 220.856 89.5814 215.587C94.85 210.319 97.8098 203.173 97.8098 195.722C97.8098 188.271 94.85 181.126 89.5814 175.857C84.3129 170.589 77.1672 167.629 69.7164 167.629C62.2656 167.629 55.1199 170.589 49.8514 175.857C44.5828 181.126 41.623 188.271 41.623 195.722C41.623 203.173 44.5828 210.319 49.8514 215.587C55.1199 220.856 62.2656 223.816 69.7164 223.816Z" fill="url(#paint21_linear_1066_1064)"/>
<path d="M69.7164 223.816C77.1672 223.816 84.3129 220.856 89.5814 215.587C94.85 210.319 97.8098 203.173 97.8098 195.722C97.8098 188.271 94.85 181.126 89.5814 175.857C84.3129 170.589 77.1672 167.629 69.7164 167.629C62.2656 167.629 55.1199 170.589 49.8514 175.857C44.5828 181.126 41.623 188.271 41.623 195.722C41.623 203.173 44.5828 210.319 49.8514 215.587C55.1199 220.856 62.2656 223.816 69.7164 223.816Z" fill="url(#paint22_radial_1066_1064)"/>
</g>
<g filter="url(#filter6_ii_1066_1064)">
<path d="M69.7322 206.087C72.482 206.087 75.1192 204.994 77.0636 203.05C79.008 201.106 80.1003 198.468 80.1003 195.719C80.1003 192.969 79.008 190.332 77.0636 188.387C75.1192 186.443 72.482 185.351 69.7322 185.351C66.9824 185.351 64.3453 186.443 62.4009 188.387C60.4565 190.332 59.3641 192.969 59.3641 195.719C59.3641 198.468 60.4565 201.106 62.4009 203.05C64.3453 204.994 66.9824 206.087 69.7322 206.087Z" fill="#D9C3F0"/>
</g>
<g filter="url(#filter7_f_1066_1064)">
<path d="M70.9873 212.36C81.702 212.36 90.388 203.674 90.388 192.959C90.388 182.245 81.702 173.559 70.9873 173.559C60.2725 173.559 51.5865 182.245 51.5865 192.959C51.5865 203.674 60.2725 212.36 70.9873 212.36Z" stroke="url(#paint23_linear_1066_1064)" stroke-width="6.87969"/>
</g>
<g filter="url(#filter8_f_1066_1064)">
<path d="M191.35 212.36C202.065 212.36 210.751 203.674 210.751 192.959C210.751 182.245 202.065 173.559 191.35 173.559C180.635 173.559 171.949 182.245 171.949 192.959C171.949 203.674 180.635 212.36 191.35 212.36Z" stroke="url(#paint24_linear_1066_1064)" stroke-width="6.87969"/>
</g>
<defs>
<filter id="filter0_ii_1066_1064" x="11.434" y="78.3613" width="105.219" height="82.0465" filterUnits="userSpaceOnUse" color-interpolation-filters="sRGB">
<feFlood flood-opacity="0" result="BackgroundImageFix"/>
<feBlend mode="normal" in="SourceGraphic" in2="BackgroundImageFix" result="shape"/>
<feColorMatrix in="SourceAlpha" type="matrix" values="0 0 0 0 0 0 0 0 0 0 0 0 0 0 0 0 0 0 127 0" result="hardAlpha"/>
<feOffset dx="-8.09375" dy="1.61875"/>
<feGaussianBlur stdDeviation="2.02344"/>
<feComposite in2="hardAlpha" operator="arithmetic" k2="-1" k3="1"/>
<feColorMatrix type="matrix" values="0 0 0 0 1 0 0 0 0 0.945098 0 0 0 0 0.996078 0 0 0 1 0"/>
<feBlend mode="normal" in2="shape" result="effect1_innerShadow_1066_1064"/>
<feColorMatrix in="SourceAlpha" type="matrix" values="0 0 0 0 0 0 0 0 0 0 0 0 0 0 0 0 0 0 127 0" result="hardAlpha"/>
<feOffset dx="4.04688"/>
<feGaussianBlur stdDeviation="2.02344"/>
<feComposite in2="hardAlpha" operator="arithmetic" k2="-1" k3="1"/>
<feColorMatrix type="matrix" values="0 0 0 0 0.678431 0 0 0 0 0.639216 0 0 0 0 0.643137 0 0 0 1 0"/>
<feBlend mode="normal" in2="effect1_innerShadow_1066_1064" result="effect2_innerShadow_1066_1064"/>
</filter>
<filter id="filter1_ii_1066_1064" x="108.559" y="37.8926" width="137.594" height="115.344" filterUnits="userSpaceOnUse" color-interpolation-filters="sRGB">
<feFlood flood-opacity="0" result="BackgroundImageFix"/>
<feBlend mode="normal" in="SourceGraphic" in2="BackgroundImageFix" result="shape"/>
<feColorMatrix in="SourceAlpha" type="matrix" values="0 0 0 0 0 0 0 0 0 0 0 0 0 0 0 0 0 0 127 0" result="hardAlpha"/>
<feOffset dx="6.475"/>
<feGaussianBlur stdDeviation="2.02344"/>
<feComposite in2="hardAlpha" operator="arithmetic" k2="-1" k3="1"/>
<feColorMatrix type="matrix" values="0 0 0 0 0.784314 0 0 0 0 0.615686 0 0 0 0 0.258824 0 0 0 1 0"/>
<feBlend mode="normal" in2="shape" result="effect1_innerShadow_1066_1064"/>
<feColorMatrix in="SourceAlpha" type="matrix" values="0 0 0 0 0 0 0 0 0 0 0 0 0 0 0 0 0 0 127 0" result="hardAlpha"/>
<feOffset dx="-8.09375"/>
<feGaussianBlur stdDeviation="2.02344"/>
<feComposite in2="hardAlpha" operator="arithmetic" k2="-1" k3="1"/>
<feColorMatrix type="matrix" values="0 0 0 0 0.909804 0 0 0 0 0.756863 0 0 0 0 0.27451 0 0 0 1 0"/>
<feBlend mode="normal" in2="effect1_innerShadow_1066_1064" result="effect2_innerShadow_1066_1064"/>
</filter>
<filter id="filter2_ii_1066_1064" x="176.951" y="183.175" width="25.0906" height="25.0906" filterUnits="userSpaceOnUse" color-interpolation-filters="sRGB">
<feFlood flood-opacity="0" result="BackgroundImageFix"/>
<feBlend mode="normal" in="SourceGraphic" in2="BackgroundImageFix" result="shape"/>
<feColorMatrix in="SourceAlpha" type="matrix" values="0 0 0 0 0 0 0 0 0 0 0 0 0 0 0 0 0 0 127 0" result="hardAlpha"/>
<feOffset dx="0.404688" dy="-0.404688"/>
<feGaussianBlur stdDeviation="0.404688"/>
<feComposite in2="hardAlpha" operator="arithmetic" k2="-1" k3="1"/>
<feColorMatrix type="matrix" values="0 0 0 0 0.478431 0 0 0 0 0.364706 0 0 0 0 0.584314 0 0 0 1 0"/>
<feBlend mode="normal" in2="shape" result="effect1_innerShadow_1066_1064"/>
<feColorMatrix in="SourceAlpha" type="matrix" values="0 0 0 0 0 0 0 0 0 0 0 0 0 0 0 0 0 0 127 0" result="hardAlpha"/>
<feOffset dx="-0.404688" dy="0.404688"/>
<feGaussianBlur stdDeviation="0.404688"/>
<feComposite in2="hardAlpha" operator="arithmetic" k2="-1" k3="1"/>
<feColorMatrix type="matrix" values="0 0 0 0 0.807843 0 0 0 0 0.764706 0 0 0 0 0.858824 0 0 0 1 0"/>
<feBlend mode="normal" in2="effect1_innerShadow_1066_1064" result="effect2_innerShadow_1066_1064"/>
</filter>
<filter id="filter3_ii_1066_1064" x="161.638" y="167.629" width="56.1868" height="57.4011" filterUnits="userSpaceOnUse" color-interpolation-filters="sRGB">
<feFlood flood-opacity="0" result="BackgroundImageFix"/>
<feBlend mode="normal" in="SourceGraphic" in2="BackgroundImageFix" result="shape"/>
<feColorMatrix in="SourceAlpha" type="matrix" values="0 0 0 0 0 0 0 0 0 0 0 0 0 0 0 0 0 0 127 0" result="hardAlpha"/>
<feOffset/>
<feGaussianBlur stdDeviation="4.04688"/>
<feComposite in2="hardAlpha" operator="arithmetic" k2="-1" k3="1"/>
<feColorMatrix type="matrix" values="0 0 0 0 0.145098 0 0 0 0 0.0823529 0 0 0 0 0.215686 0 0 0 1 0"/>
<feBlend mode="normal" in2="shape" result="effect1_innerShadow_1066_1064"/>
<feColorMatrix in="SourceAlpha" type="matrix" values="0 0 0 0 0 0 0 0 0 0 0 0 0 0 0 0 0 0 127 0" result="hardAlpha"/>
<feOffset dy="1.21406"/>
<feGaussianBlur stdDeviation="1.01172"/>
<feComposite in2="hardAlpha" operator="arithmetic" k2="-1" k3="1"/>
<feColorMatrix type="matrix" values="0 0 0 0 0.207843 0 0 0 0 0.0313726 0 0 0 0 0.235294 0 0 0 1 0"/>
<feBlend mode="normal" in2="effect1_innerShadow_1066_1064" result="effect2_innerShadow_1066_1064"/>
</filter>
<filter id="filter4_ii_1066_1064" x="178.982" y="184.946" width="21.5456" height="21.5457" filterUnits="userSpaceOnUse" color-interpolation-filters="sRGB">
<feFlood flood-opacity="0" result="BackgroundImageFix"/>
<feBlend mode="normal" in="SourceGraphic" in2="BackgroundImageFix" result="shape"/>
<feColorMatrix in="SourceAlpha" type="matrix" values="0 0 0 0 0 0 0 0 0 0 0 0 0 0 0 0 0 0 127 0" result="hardAlpha"/>
<feOffset dx="0.404688" dy="-0.404688"/>
<feGaussianBlur stdDeviation="0.404688"/>
<feComposite in2="hardAlpha" operator="arithmetic" k2="-1" k3="1"/>
<feColorMatrix type="matrix" values="0 0 0 0 0.478431 0 0 0 0 0.364706 0 0 0 0 0.584314 0 0 0 1 0"/>
<feBlend mode="normal" in2="shape" result="effect1_innerShadow_1066_1064"/>
<feColorMatrix in="SourceAlpha" type="matrix" values="0 0 0 0 0 0 0 0 0 0 0 0 0 0 0 0 0 0 127 0" result="hardAlpha"/>
<feOffset dx="-0.404688" dy="0.404688"/>
<feGaussianBlur stdDeviation="0.404688"/>
<feComposite in2="hardAlpha" operator="arithmetic" k2="-1" k3="1"/>
<feColorMatrix type="matrix" values="0 0 0 0 0.807843 0 0 0 0 0.764706 0 0 0 0 0.858824 0 0 0 1 0"/>
<feBlend mode="normal" in2="effect1_innerShadow_1066_1064" result="effect2_innerShadow_1066_1064"/>
</filter>
<filter id="filter5_ii_1066_1064" x="41.623" y="167.629" width="56.1868" height="57.4011" filterUnits="userSpaceOnUse" color-interpolation-filters="sRGB">
<feFlood flood-opacity="0" result="BackgroundImageFix"/>
<feBlend mode="normal" in="SourceGraphic" in2="BackgroundImageFix" result="shape"/>
<feColorMatrix in="SourceAlpha" type="matrix" values="0 0 0 0 0 0 0 0 0 0 0 0 0 0 0 0 0 0 127 0" result="hardAlpha"/>
<feOffset/>
<feGaussianBlur stdDeviation="4.04688"/>
<feComposite in2="hardAlpha" operator="arithmetic" k2="-1" k3="1"/>
<feColorMatrix type="matrix" values="0 0 0 0 0.145098 0 0 0 0 0.0823529 0 0 0 0 0.215686 0 0 0 1 0"/>
<feBlend mode="normal" in2="shape" result="effect1_innerShadow_1066_1064"/>
<feColorMatrix in="SourceAlpha" type="matrix" values="0 0 0 0 0 0 0 0 0 0 0 0 0 0 0 0 0 0 127 0" result="hardAlpha"/>
<feOffset dy="1.21406"/>
<feGaussianBlur stdDeviation="1.01172"/>
<feComposite in2="hardAlpha" operator="arithmetic" k2="-1" k3="1"/>
<feColorMatrix type="matrix" values="0 0 0 0 0.207843 0 0 0 0 0.0313726 0 0 0 0 0.235294 0 0 0 1 0"/>
<feBlend mode="normal" in2="effect1_innerShadow_1066_1064" result="effect2_innerShadow_1066_1064"/>
</filter>
<filter id="filter6_ii_1066_1064" x="58.9594" y="184.946" width="21.5456" height="21.5457" filterUnits="userSpaceOnUse" color-interpolation-filters="sRGB">
<feFlood flood-opacity="0" result="BackgroundImageFix"/>
<feBlend mode="normal" in="SourceGraphic" in2="BackgroundImageFix" result="shape"/>
<feColorMatrix in="SourceAlpha" type="matrix" values="0 0 0 0 0 0 0 0 0 0 0 0 0 0 0 0 0 0 127 0" result="hardAlpha"/>
<feOffset dx="0.404688" dy="-0.404688"/>
<feGaussianBlur stdDeviation="0.404688"/>
<feComposite in2="hardAlpha" operator="arithmetic" k2="-1" k3="1"/>
<feColorMatrix type="matrix" values="0 0 0 0 0.478431 0 0 0 0 0.364706 0 0 0 0 0.584314 0 0 0 1 0"/>
<feBlend mode="normal" in2="shape" result="effect1_innerShadow_1066_1064"/>
<feColorMatrix in="SourceAlpha" type="matrix" values="0 0 0 0 0 0 0 0 0 0 0 0 0 0 0 0 0 0 127 0" result="hardAlpha"/>
<feOffset dx="-0.404688" dy="0.404688"/>
<feGaussianBlur stdDeviation="0.404688"/>
<feComposite in2="hardAlpha" operator="arithmetic" k2="-1" k3="1"/>
<feColorMatrix type="matrix" values="0 0 0 0 0.807843 0 0 0 0 0.764706 0 0 0 0 0.858824 0 0 0 1 0"/>
<feBlend mode="normal" in2="effect1_innerShadow_1066_1064" result="effect2_innerShadow_1066_1064"/>
</filter>
<filter id="filter7_f_1066_1064" x="42.0764" y="164.048" width="57.8218" height="57.8218" filterUnits="userSpaceOnUse" color-interpolation-filters="sRGB">
<feFlood flood-opacity="0" result="BackgroundImageFix"/>
<feBlend mode="normal" in="SourceGraphic" in2="BackgroundImageFix" result="shape"/>
<feGaussianBlur stdDeviation="3.03516" result="effect1_foregroundBlur_1066_1064"/>
</filter>
<filter id="filter8_f_1066_1064" x="162.439" y="164.048" width="57.8218" height="57.8218" filterUnits="userSpaceOnUse" color-interpolation-filters="sRGB">
<feFlood flood-opacity="0" result="BackgroundImageFix"/>
<feBlend mode="normal" in="SourceGraphic" in2="BackgroundImageFix" result="shape"/>
<feGaussianBlur stdDeviation="3.03516" result="effect1_foregroundBlur_1066_1064"/>
</filter>
<linearGradient id="paint0_linear_1066_1064" x1="20.0377" y1="111.092" x2="112.606" y2="111.092" gradientUnits="userSpaceOnUse">
<stop stop-color="#C9BDD1"/>
<stop offset="1" stop-color="#EBDDF3"/>
</linearGradient>
<linearGradient id="paint1_linear_1066_1064" x1="68.9239" y1="77.034" x2="68.9239" y2="83.2419" gradientUnits="userSpaceOnUse">
<stop stop-color="#C8C6C5"/>
<stop offset="0.495" stop-color="#C8C6C5" stop-opacity="0"/>
</linearGradient>
<linearGradient id="paint2_linear_1066_1064" x1="112.606" y1="108.964" x2="110.939" y2="108.964" gradientUnits="userSpaceOnUse">
<stop stop-color="#604114"/>
<stop offset="1" stop-color="#604114" stop-opacity="0"/>
</linearGradient>
<linearGradient id="paint3_linear_1066_1064" x1="118.765" y1="151.181" x2="242.106" y2="82.8615" gradientUnits="userSpaceOnUse">
<stop stop-color="#F1C147"/>
<stop offset="1" stop-color="#E0B343"/>
</linearGradient>
<linearGradient id="paint4_linear_1066_1064" x1="177.356" y1="37.8926" x2="177.356" y2="54.8085" gradientUnits="userSpaceOnUse">
<stop stop-color="#EAC439"/>
<stop offset="1" stop-color="#EAC439" stop-opacity="0"/>
</linearGradient>
<linearGradient id="paint5_linear_1066_1064" x1="242.106" y1="103.654" x2="239.767" y2="103.654" gradientUnits="userSpaceOnUse">
<stop stop-color="#DDBE7A"/>
<stop offset="1" stop-color="#DDBE7A" stop-opacity="0"/>
</linearGradient>
<linearGradient id="paint6_linear_1066_1064" x1="75.6828" y1="93.5353" x2="26.6104" y2="135.016" gradientUnits="userSpaceOnUse">
<stop stop-color="#35A5E2"/>
<stop offset="1" stop-color="#4AD3F9"/>
</linearGradient>
<linearGradient id="paint7_linear_1066_1064" x1="49.111" y1="86.5342" x2="49.111" y2="117.533" gradientUnits="userSpaceOnUse">
<stop stop-color="#1D95DD"/>
<stop offset="1" stop-color="#1D95DD" stop-opacity="0"/>
</linearGradient>
<linearGradient id="paint8_linear_1066_1064" x1="83.5823" y1="114.968" x2="72.0163" y2="114.968" gradientUnits="userSpaceOnUse">
<stop stop-color="#48B8E6"/>
<stop offset="1" stop-color="#48B8E6" stop-opacity="0"/>
</linearGradient>
<linearGradient id="paint9_linear_1066_1064" x1="151.699" y1="143.072" x2="152.063" y2="192.177" gradientUnits="userSpaceOnUse">
<stop stop-color="#FD6E33"/>
<stop offset="1" stop-color="#EB3C3D"/>
</linearGradient>
<linearGradient id="paint10_linear_1066_1064" x1="112.606" y1="164.035" x2="121.517" y2="164.035" gradientUnits="userSpaceOnUse">
<stop offset="0.513" stop-color="#EA3A0C"/>
<stop offset="1" stop-color="#EA3A0C" stop-opacity="0"/>
</linearGradient>
<linearGradient id="paint11_linear_1066_1064" x1="177.356" y1="206.811" x2="177.356" y2="186.066" gradientUnits="userSpaceOnUse">
<stop stop-color="#BC2447"/>
<stop offset="1" stop-color="#BC2447" stop-opacity="0"/>
</linearGradient>
<linearGradient id="paint12_linear_1066_1064" x1="225.903" y1="163.848" x2="238.821" y2="178.772" gradientUnits="userSpaceOnUse">
<stop stop-color="#BD0663"/>
<stop offset="1" stop-color="#C8166A"/>
</linearGradient>
<linearGradient id="paint13_linear_1066_1064" x1="64.0433" y1="139.566" x2="64.0433" y2="199.849" gradientUnits="userSpaceOnUse">
<stop stop-color="#FF7233"/>
<stop offset="1" stop-color="#EE3124"/>
</linearGradient>
<linearGradient id="paint14_linear_1066_1064" x1="112.606" y1="172.702" x2="97.681" y2="172.702" gradientUnits="userSpaceOnUse">
<stop stop-color="#FF7B3D"/>
<stop offset="1" stop-color="#FF7B3D" stop-opacity="0"/>
</linearGradient>
<linearGradient id="paint15_linear_1066_1064" x1="64.0433" y1="199.849" x2="64.0433" y2="186.105" gradientUnits="userSpaceOnUse">
<stop stop-color="#BC2447"/>
<stop offset="1" stop-color="#BC2447" stop-opacity="0"/>
</linearGradient>
<linearGradient id="paint16_linear_1066_1064" x1="112.606" y1="164.697" x2="110.939" y2="164.697" gradientUnits="userSpaceOnUse">
<stop stop-color="#BC2303"/>
<stop offset="1" stop-color="#BC2303" stop-opacity="0"/>
</linearGradient>
<linearGradient id="paint17_linear_1066_1064" x1="69.7177" y1="164.05" x2="69.7177" y2="199.849" gradientUnits="userSpaceOnUse">
<stop stop-color="#99160C"/>
<stop offset="1" stop-color="#AC0819"/>
</linearGradient>
<linearGradient id="paint18_linear_1066_1064" x1="189.496" y1="164.05" x2="189.496" y2="199.849" gradientUnits="userSpaceOnUse">
<stop stop-color="#99160C"/>
<stop offset="1" stop-color="#AC0819"/>
</linearGradient>
<linearGradient id="paint19_linear_1066_1064" x1="176.781" y1="188.656" x2="218.974" y2="188.656" gradientUnits="userSpaceOnUse">
<stop offset="0.239" stop-color="#34214F"/>
<stop offset="1" stop-color="#241337"/>
</linearGradient>
<radialGradient id="paint20_radial_1066_1064" cx="0" cy="0" r="1" gradientUnits="userSpaceOnUse" gradientTransform="translate(189.731 193.205) rotate(-65.5365) scale(15.329 16.0105)">
<stop offset="0.523" stop-color="#2D114D"/>
<stop offset="1" stop-color="#2B1249" stop-opacity="0"/>
</radialGradient>
<linearGradient id="paint21_linear_1066_1064" x1="56.7583" y1="188.656" x2="98.9591" y2="188.656" gradientUnits="userSpaceOnUse">
<stop offset="0.239" stop-color="#34214F"/>
<stop offset="1" stop-color="#241337"/>
</linearGradient>
<radialGradient id="paint22_radial_1066_1064" cx="0" cy="0" r="1" gradientUnits="userSpaceOnUse" gradientTransform="translate(69.7164 193.205) rotate(-65.5365) scale(15.329 16.0105)">
<stop offset="0.523" stop-color="#2D114D"/>
<stop offset="1" stop-color="#2B1249" stop-opacity="0"/>
</radialGradient>
<linearGradient id="paint23_linear_1066_1064" x1="81.5496" y1="177.565" x2="57.9887" y2="210.11" gradientUnits="userSpaceOnUse">
<stop offset="0.083" stop-color="#615B6B"/>
<stop offset="0.391" stop-color="#615B6B" stop-opacity="0"/>
<stop offset="0.692" stop-color="#615B6B" stop-opacity="0"/>
<stop offset="0.935" stop-color="#615B6B"/>
</linearGradient>
<linearGradient id="paint24_linear_1066_1064" x1="201.921" y1="177.565" x2="178.352" y2="210.11" gradientUnits="userSpaceOnUse">
<stop offset="0.083" stop-color="#615B6B"/>
<stop offset="0.391" stop-color="#615B6B" stop-opacity="0"/>
<stop offset="0.692" stop-color="#615B6B" stop-opacity="0"/>
<stop offset="0.935" stop-color="#615B6B"/>
</linearGradient>
</defs>
</svg>
